<svg width="1920" height="720" viewBox="0 0 1920 720" fill="none" xmlns="http://www.w3.org/2000/svg">
<g clip-path="url(#clip0_20_3)">
<rect width="1920" height="720" fill="#0E182D"/>
<rect width="1920" height="720" rx="2" fill="#0E182D" style="mix-blend-mode:darken"/>
<g clip-path="url(#clip1_20_3)">
<path d="M1959.71 763.14C1972.84 777.763 1994.37 777.475 2006.45 763.14C2019.05 748.524 2019.31 726.453 2006.45 712.124L1682.95 357.856C1670.09 343.525 1648.29 343.525 1636.21 357.856C1623.35 372.187 1623.61 394.831 1636.21 408.875L1959.71 763.14ZM1970.47 740.212L1759.1 509.194L1774.33 492.57L1985.7 723.876C1991.48 730.18 1992.79 736.484 1987.54 742.795C1982.29 747.955 1976.51 746.804 1970.47 740.212Z" fill="#F7941E"/>
<path d="M1537.22 759.988C1542.74 759.988 1546.41 755.691 1547.2 749.387C1559.28 650.787 1562.17 649.355 1654.33 632.156C1660.63 631.299 1664.31 627.859 1664.31 621.549C1664.31 615.532 1660.63 611.519 1655.38 610.659C1562.69 591.169 1559.28 592.029 1547.2 493.43C1546.41 487.124 1542.74 483.111 1537.22 483.111C1531.97 483.111 1528.03 487.124 1527.51 493.143C1514.9 593.175 1512.8 594.895 1419.06 610.659C1414.07 611.232 1410.14 615.532 1410.14 621.549C1410.14 627.571 1414.07 631.299 1419.06 632.156C1512.8 651.932 1514.64 651.362 1527.51 749.956C1528.03 755.691 1531.97 759.988 1537.22 759.988ZM1376.53 440.404C1380.46 440.404 1382.83 437.251 1383.62 433.238C1395.69 365.595 1396.22 360.149 1462.13 347.538C1466.06 346.678 1468.69 344.099 1468.69 339.512C1468.69 334.927 1466.06 332.347 1462.13 331.487C1396.22 318.875 1395.69 313.43 1383.62 245.786C1382.83 241.773 1380.46 238.62 1376.53 238.62C1372.59 238.62 1369.96 241.773 1369.44 245.786C1357.36 313.43 1356.83 318.875 1290.93 331.487C1286.72 332.347 1284.1 334.927 1284.1 339.512C1284.1 344.099 1286.72 346.678 1290.93 347.538C1356.83 360.149 1357.36 365.595 1369.44 433.238C1369.96 437.251 1372.59 440.404 1376.53 440.404ZM1559.28 208.238C1562.69 208.238 1564.27 205.659 1565.06 202.219C1576.61 144.608 1576.61 140.882 1632.28 128.843C1635.69 127.984 1638.05 125.977 1638.05 122.251C1638.05 118.525 1635.69 116.232 1632.28 115.659C1576.61 103.334 1576.61 99.8944 1565.06 42.2829C1564.27 38.5568 1562.69 36.2638 1559.28 36.2638C1555.87 36.2638 1554.03 38.5568 1553.24 42.2829C1541.69 99.8944 1541.95 103.334 1486.02 115.659C1482.61 116.232 1480.51 118.525 1480.51 122.251C1480.51 125.69 1482.61 127.984 1486.02 128.843C1541.95 140.882 1541.69 144.608 1553.24 202.219C1554.03 205.659 1555.87 208.238 1559.28 208.238ZM1834.72 335.499C1838.66 335.499 1841.29 332.633 1841.81 328.334C1853.89 260.977 1854.68 255.532 1920.32 242.633C1924.52 242.06 1927.15 239.194 1927.15 234.895C1927.15 230.308 1924.52 227.729 1920.32 226.869C1854.68 213.971 1853.89 208.525 1841.81 141.169C1841.29 136.869 1838.66 134.003 1834.72 134.003C1830.79 134.003 1828.42 136.869 1827.63 141.169C1815.55 208.525 1815.03 213.971 1749.12 226.869C1745.18 227.729 1742.56 230.308 1742.56 234.895C1742.56 239.194 1745.18 242.06 1749.12 242.633C1815.03 255.532 1815.55 260.977 1827.63 328.334C1828.42 332.633 1830.79 335.499 1834.72 335.499Z" fill="#F7941E"/>
</g>
<path d="M183.173 282V209.273H229.764V220.317H196.348V240.061H226.568V251.105H196.348V282H183.173ZM260.988 283.065C255.661 283.065 251.044 281.893 247.138 279.55C243.232 277.206 240.202 273.927 238.047 269.713C235.917 265.499 234.851 260.575 234.851 254.94C234.851 249.306 235.917 244.37 238.047 240.132C240.202 235.894 243.232 232.604 247.138 230.26C251.044 227.916 255.661 226.744 260.988 226.744C266.314 226.744 270.931 227.916 274.837 230.26C278.743 232.604 281.762 235.894 283.892 240.132C286.047 244.37 287.124 249.306 287.124 254.94C287.124 260.575 286.047 265.499 283.892 269.713C281.762 273.927 278.743 277.206 274.837 279.55C270.931 281.893 266.314 283.065 260.988 283.065ZM261.059 272.767C263.947 272.767 266.362 271.974 268.303 270.388C270.244 268.778 271.688 266.624 272.635 263.925C273.606 261.226 274.091 258.219 274.091 254.905C274.091 251.567 273.606 248.548 272.635 245.849C271.688 243.127 270.244 240.961 268.303 239.351C266.362 237.741 263.947 236.936 261.059 236.936C258.099 236.936 255.637 237.741 253.672 239.351C251.731 240.961 250.275 243.127 249.304 245.849C248.357 248.548 247.884 251.567 247.884 254.905C247.884 258.219 248.357 261.226 249.304 263.925C250.275 266.624 251.731 268.778 253.672 270.388C255.637 271.974 258.099 272.767 261.059 272.767ZM321.827 283.065C316.382 283.065 311.707 281.87 307.8 279.479C303.918 277.088 300.923 273.785 298.816 269.571C296.733 265.333 295.691 260.456 295.691 254.94C295.691 249.401 296.756 244.512 298.887 240.274C301.018 236.013 304.024 232.698 307.907 230.331C311.813 227.94 316.43 226.744 321.756 226.744C326.183 226.744 330.102 227.561 333.511 229.195C336.943 230.804 339.678 233.089 341.714 236.048C343.75 238.984 344.91 242.417 345.194 246.347H332.907C332.41 243.719 331.226 241.529 329.356 239.777C327.509 238.001 325.035 237.114 321.934 237.114C319.306 237.114 316.998 237.824 315.009 239.244C313.021 240.641 311.47 242.653 310.357 245.281C309.268 247.909 308.724 251.058 308.724 254.727C308.724 258.444 309.268 261.64 310.357 264.315C311.446 266.967 312.973 269.015 314.938 270.459C316.927 271.879 319.259 272.589 321.934 272.589C323.828 272.589 325.521 272.234 327.012 271.524C328.527 270.79 329.794 269.737 330.812 268.364C331.83 266.991 332.528 265.321 332.907 263.357H345.194C344.886 267.215 343.75 270.636 341.785 273.619C339.82 276.579 337.145 278.899 333.759 280.58C330.374 282.237 326.397 283.065 321.827 283.065ZM390.515 259.06V227.455H403.37V282H390.906V272.305H390.338C389.107 275.359 387.083 277.857 384.265 279.798C381.472 281.74 378.027 282.71 373.931 282.71C370.357 282.71 367.196 281.917 364.45 280.331C361.727 278.721 359.597 276.389 358.058 273.335C356.519 270.258 355.75 266.541 355.75 262.185V227.455H368.605V260.196C368.605 263.652 369.552 266.399 371.446 268.435C373.34 270.471 375.825 271.489 378.903 271.489C380.797 271.489 382.632 271.027 384.407 270.104C386.183 269.18 387.639 267.807 388.775 265.984C389.935 264.138 390.515 261.83 390.515 259.06ZM459.7 241.872L447.982 243.151C447.65 241.967 447.07 240.854 446.241 239.812C445.437 238.771 444.348 237.93 442.974 237.291C441.601 236.652 439.92 236.332 437.932 236.332C435.257 236.332 433.008 236.912 431.185 238.072C429.385 239.232 428.498 240.736 428.521 242.582C428.498 244.169 429.078 245.459 430.261 246.453C431.469 247.447 433.457 248.264 436.227 248.903L445.531 250.892C450.692 252.005 454.527 253.768 457.037 256.183C459.57 258.598 460.848 261.759 460.872 265.665C460.848 269.098 459.842 272.128 457.854 274.756C455.889 277.36 453.154 279.396 449.651 280.864C446.147 282.331 442.122 283.065 437.577 283.065C430.901 283.065 425.527 281.669 421.455 278.875C417.383 276.058 414.956 272.14 414.175 267.121L426.71 265.913C427.278 268.375 428.486 270.234 430.332 271.489C432.179 272.743 434.582 273.371 437.541 273.371C440.595 273.371 443.045 272.743 444.892 271.489C446.762 270.234 447.697 268.683 447.697 266.837C447.697 265.274 447.094 263.984 445.886 262.966C444.703 261.948 442.856 261.167 440.347 260.622L431.043 258.669C425.811 257.58 421.94 255.745 419.43 253.165C416.921 250.561 415.678 247.27 415.702 243.293C415.678 239.931 416.589 237.019 418.436 234.557C420.306 232.071 422.899 230.153 426.213 228.804C429.551 227.431 433.398 226.744 437.754 226.744C444.146 226.744 449.177 228.106 452.847 230.828C456.54 233.551 458.824 237.232 459.7 241.872ZM496.845 282V209.273H524.118C529.705 209.273 534.393 210.314 538.18 212.398C541.992 214.481 544.868 217.346 546.81 220.991C548.775 224.614 549.757 228.733 549.757 233.349C549.757 238.013 548.775 242.156 546.81 245.778C544.845 249.401 541.945 252.253 538.109 254.337C534.274 256.396 529.551 257.426 523.94 257.426H505.865V246.595H522.165C525.432 246.595 528.107 246.027 530.19 244.891C532.274 243.754 533.813 242.192 534.807 240.203C535.825 238.214 536.334 235.93 536.334 233.349C536.334 230.769 535.825 228.496 534.807 226.531C533.813 224.566 532.262 223.039 530.155 221.95C528.071 220.838 525.384 220.281 522.094 220.281H510.02V282H496.845ZM583.644 283.065C578.317 283.065 573.701 281.893 569.794 279.55C565.888 277.206 562.858 273.927 560.703 269.713C558.573 265.499 557.507 260.575 557.507 254.94C557.507 249.306 558.573 244.37 560.703 240.132C562.858 235.894 565.888 232.604 569.794 230.26C573.701 227.916 578.317 226.744 583.644 226.744C588.971 226.744 593.587 227.916 597.493 230.26C601.4 232.604 604.418 235.894 606.549 240.132C608.703 244.37 609.78 249.306 609.78 254.94C609.78 260.575 608.703 265.499 606.549 269.713C604.418 273.927 601.4 277.206 597.493 279.55C593.587 281.893 588.971 283.065 583.644 283.065ZM583.715 272.767C586.603 272.767 589.018 271.974 590.959 270.388C592.9 268.778 594.345 266.624 595.292 263.925C596.262 261.226 596.748 258.219 596.748 254.905C596.748 251.567 596.262 248.548 595.292 245.849C594.345 243.127 592.9 240.961 590.959 239.351C589.018 237.741 586.603 236.936 583.715 236.936C580.756 236.936 578.293 237.741 576.328 239.351C574.387 240.961 572.931 243.127 571.961 245.849C571.014 248.548 570.54 251.567 570.54 254.905C570.54 258.219 571.014 261.226 571.961 263.925C572.931 266.624 574.387 268.778 576.328 270.388C578.293 271.974 580.756 272.767 583.715 272.767ZM644.484 283.065C639.039 283.065 634.363 281.87 630.457 279.479C626.574 277.088 623.579 273.785 621.472 269.571C619.389 265.333 618.347 260.456 618.347 254.94C618.347 249.401 619.413 244.512 621.543 240.274C623.674 236.013 626.681 232.698 630.563 230.331C634.469 227.94 639.086 226.744 644.413 226.744C648.84 226.744 652.758 227.561 656.167 229.195C659.6 230.804 662.334 233.089 664.37 236.048C666.406 238.984 667.566 242.417 667.85 246.347H655.563C655.066 243.719 653.882 241.529 652.012 239.777C650.165 238.001 647.692 237.114 644.59 237.114C641.962 237.114 639.654 237.824 637.665 239.244C635.677 240.641 634.126 242.653 633.013 245.281C631.924 247.909 631.38 251.058 631.38 254.727C631.38 258.444 631.924 261.64 633.013 264.315C634.103 266.967 635.629 269.015 637.594 270.459C639.583 271.879 641.915 272.589 644.59 272.589C646.484 272.589 648.177 272.234 649.668 271.524C651.183 270.79 652.45 269.737 653.468 268.364C654.486 266.991 655.184 265.321 655.563 263.357H667.85C667.542 267.215 666.406 270.636 664.441 273.619C662.476 276.579 659.801 278.899 656.415 280.58C653.03 282.237 649.053 283.065 644.484 283.065ZM713.172 259.06V227.455H726.027V282H713.562V272.305H712.994C711.763 275.359 709.739 277.857 706.922 279.798C704.128 281.74 700.683 282.71 696.588 282.71C693.013 282.71 689.852 281.917 687.106 280.331C684.384 278.721 682.253 276.389 680.714 273.335C679.175 270.258 678.406 266.541 678.406 262.185V227.455H691.261V260.196C691.261 263.652 692.208 266.399 694.102 268.435C695.996 270.471 698.482 271.489 701.559 271.489C703.453 271.489 705.288 271.027 707.064 270.104C708.839 269.18 710.295 267.807 711.431 265.984C712.592 264.138 713.172 261.83 713.172 259.06ZM782.357 241.872L770.638 243.151C770.306 241.967 769.726 240.854 768.898 239.812C768.093 238.771 767.004 237.93 765.631 237.291C764.258 236.652 762.577 236.332 760.588 236.332C757.913 236.332 755.664 236.912 753.841 238.072C752.042 239.232 751.154 240.736 751.178 242.582C751.154 244.169 751.734 245.459 752.918 246.453C754.125 247.447 756.114 248.264 758.884 248.903L768.188 250.892C773.348 252.005 777.184 253.768 779.693 256.183C782.226 258.598 783.505 261.759 783.528 265.665C783.505 269.098 782.499 272.128 780.51 274.756C778.545 277.36 775.811 279.396 772.307 280.864C768.803 282.331 764.778 283.065 760.233 283.065C753.557 283.065 748.183 281.669 744.111 278.875C740.039 276.058 737.612 272.14 736.831 267.121L749.366 265.913C749.935 268.375 751.142 270.234 752.989 271.489C754.835 272.743 757.238 273.371 760.197 273.371C763.251 273.371 765.702 272.743 767.548 271.489C769.419 270.234 770.354 268.683 770.354 266.837C770.354 265.274 769.75 263.984 768.543 262.966C767.359 261.948 765.512 261.167 763.003 260.622L753.699 258.669C748.467 257.58 744.596 255.745 742.087 253.165C739.577 250.561 738.334 247.27 738.358 243.293C738.334 239.931 739.246 237.019 741.092 234.557C742.963 232.071 745.555 230.153 748.869 228.804C752.207 227.431 756.054 226.744 760.411 226.744C766.803 226.744 771.833 228.106 775.503 230.828C779.196 233.551 781.481 237.232 782.357 241.872ZM203.379 427.636H208.884V451.553C208.884 454.098 208.286 456.353 207.09 458.318C205.895 460.271 204.214 461.81 202.048 462.935C199.881 464.047 197.342 464.604 194.43 464.604C191.53 464.604 188.997 464.047 186.831 462.935C184.665 461.81 182.984 460.271 181.788 458.318C180.593 456.353 179.995 454.098 179.995 451.553V427.636H185.482V451.109C185.482 452.755 185.843 454.217 186.565 455.495C187.299 456.773 188.334 457.78 189.672 458.513C191.009 459.236 192.596 459.597 194.43 459.597C196.277 459.597 197.869 459.236 199.207 458.513C200.556 457.78 201.586 456.773 202.296 455.495C203.018 454.217 203.379 452.755 203.379 451.109V427.636ZM221.743 447.807V464H216.434V436.727H221.53V441.166H221.867C222.495 439.722 223.477 438.562 224.815 437.686C226.164 436.81 227.863 436.372 229.911 436.372C231.769 436.372 233.397 436.763 234.794 437.544C236.19 438.313 237.273 439.462 238.043 440.989C238.812 442.516 239.197 444.404 239.197 446.653V464H233.888V447.292C233.888 445.315 233.373 443.77 232.343 442.658C231.313 441.533 229.899 440.971 228.1 440.971C226.869 440.971 225.774 441.237 224.815 441.77C223.868 442.303 223.116 443.084 222.56 444.114C222.015 445.132 221.743 446.363 221.743 447.807ZM268.671 436.727L258.781 464H253.1L243.192 436.727H248.892L255.798 457.714H256.083L262.972 436.727H268.671ZM284.487 464.55C281.8 464.55 279.486 463.976 277.545 462.828C275.615 461.668 274.124 460.04 273.07 457.945C272.029 455.838 271.508 453.37 271.508 450.541C271.508 447.748 272.029 445.286 273.07 443.155C274.124 441.024 275.592 439.361 277.474 438.165C279.368 436.97 281.581 436.372 284.114 436.372C285.653 436.372 287.145 436.627 288.589 437.136C290.033 437.645 291.329 438.444 292.477 439.533C293.625 440.622 294.531 442.036 295.194 443.776C295.857 445.504 296.188 447.606 296.188 450.08V451.962H274.509V447.984H290.986C290.986 446.588 290.702 445.351 290.134 444.273C289.565 443.184 288.766 442.326 287.737 441.699C286.719 441.071 285.523 440.758 284.15 440.758C282.658 440.758 281.356 441.125 280.244 441.859C279.143 442.581 278.29 443.528 277.687 444.7C277.095 445.86 276.799 447.12 276.799 448.482V451.589C276.799 453.412 277.119 454.962 277.758 456.241C278.409 457.519 279.314 458.496 280.474 459.17C281.634 459.833 282.99 460.165 284.54 460.165C285.547 460.165 286.464 460.023 287.293 459.739C288.121 459.443 288.837 459.005 289.441 458.425C290.045 457.845 290.506 457.129 290.826 456.276L295.851 457.182C295.448 458.661 294.726 459.958 293.685 461.07C292.655 462.171 291.359 463.029 289.796 463.645C288.246 464.249 286.476 464.55 284.487 464.55ZM302.079 464V436.727H307.388V464H302.079ZM304.76 432.519C303.836 432.519 303.043 432.211 302.381 431.596C301.729 430.969 301.404 430.223 301.404 429.359C301.404 428.483 301.729 427.737 302.381 427.121C303.043 426.494 303.836 426.18 304.76 426.18C305.683 426.18 306.47 426.494 307.121 427.121C307.784 427.737 308.116 428.483 308.116 429.359C308.116 430.223 307.784 430.969 307.121 431.596C306.47 432.211 305.683 432.519 304.76 432.519ZM319.839 427.636V464H314.53V427.636H319.839ZM326.981 464V436.727H332.29V464H326.981ZM329.662 432.519C328.739 432.519 327.946 432.211 327.283 431.596C326.632 430.969 326.306 430.223 326.306 429.359C326.306 428.483 326.632 427.737 327.283 427.121C327.946 426.494 328.739 426.18 329.662 426.18C330.585 426.18 331.373 426.494 332.024 427.121C332.686 427.737 333.018 428.483 333.018 429.359C333.018 430.223 332.686 430.969 332.024 431.596C331.373 432.211 330.585 432.519 329.662 432.519ZM344.741 447.807V464H339.432V436.727H344.528V441.166H344.865C345.493 439.722 346.475 438.562 347.813 437.686C349.162 436.81 350.861 436.372 352.909 436.372C354.767 436.372 356.395 436.763 357.792 437.544C359.188 438.313 360.271 439.462 361.041 440.989C361.81 442.516 362.195 444.404 362.195 446.653V464H356.886V447.292C356.886 445.315 356.371 443.77 355.341 442.658C354.311 441.533 352.897 440.971 351.098 440.971C349.867 440.971 348.772 441.237 347.813 441.77C346.866 442.303 346.114 443.084 345.558 444.114C345.013 445.132 344.741 446.363 344.741 447.807ZM380.75 474.795C378.583 474.795 376.719 474.511 375.157 473.943C373.606 473.375 372.339 472.623 371.357 471.688C370.374 470.753 369.641 469.729 369.155 468.616L373.718 466.734C374.038 467.255 374.464 467.806 374.997 468.386C375.541 468.978 376.275 469.481 377.199 469.895C378.134 470.309 379.335 470.516 380.803 470.516C382.815 470.516 384.478 470.025 385.792 469.043C387.106 468.072 387.763 466.521 387.763 464.391V459.028H387.426C387.106 459.608 386.645 460.254 386.041 460.964C385.449 461.674 384.632 462.29 383.591 462.81C382.549 463.331 381.194 463.592 379.525 463.592C377.37 463.592 375.429 463.089 373.701 462.082C371.984 461.064 370.623 459.567 369.617 457.59C368.623 455.602 368.125 453.157 368.125 450.257C368.125 447.357 368.617 444.871 369.599 442.8C370.593 440.728 371.955 439.142 373.683 438.041C375.411 436.929 377.37 436.372 379.56 436.372C381.253 436.372 382.62 436.656 383.662 437.224C384.703 437.781 385.514 438.432 386.094 439.178C386.686 439.923 387.142 440.58 387.461 441.148H387.852V436.727H393.054V464.604C393.054 466.947 392.51 468.871 391.421 470.374C390.332 471.878 388.858 472.99 387 473.712C385.153 474.434 383.07 474.795 380.75 474.795ZM380.696 459.188C382.223 459.188 383.514 458.833 384.567 458.123C385.632 457.401 386.437 456.371 386.982 455.033C387.538 453.684 387.816 452.068 387.816 450.186C387.816 448.351 387.544 446.736 387 445.339C386.455 443.942 385.656 442.853 384.603 442.072C383.549 441.279 382.247 440.882 380.696 440.882C379.098 440.882 377.767 441.296 376.701 442.125C375.636 442.942 374.831 444.054 374.287 445.463C373.754 446.872 373.488 448.446 373.488 450.186C373.488 451.973 373.76 453.542 374.304 454.891C374.849 456.241 375.654 457.294 376.719 458.052C377.796 458.809 379.122 459.188 380.696 459.188ZM413.833 427.636H420.491L432.068 455.903H432.494L444.071 427.636H450.729V464H445.509V437.686H445.172L434.447 463.947H430.115L419.39 437.668H419.053V464H413.833V427.636ZM466.217 464.604C464.488 464.604 462.926 464.284 461.529 463.645C460.132 462.994 459.026 462.053 458.209 460.822C457.404 459.591 457.001 458.081 457.001 456.294C457.001 454.755 457.297 453.489 457.889 452.494C458.481 451.5 459.28 450.713 460.286 450.133C461.292 449.553 462.417 449.115 463.66 448.819C464.903 448.523 466.169 448.298 467.46 448.144C469.093 447.955 470.419 447.801 471.437 447.683C472.455 447.552 473.195 447.345 473.656 447.061C474.118 446.777 474.349 446.315 474.349 445.676V445.552C474.349 444.001 473.911 442.8 473.035 441.947C472.171 441.095 470.88 440.669 469.164 440.669C467.377 440.669 465.968 441.066 464.938 441.859C463.92 442.64 463.216 443.51 462.825 444.469L457.836 443.332C458.428 441.675 459.292 440.338 460.428 439.32C461.576 438.29 462.896 437.544 464.388 437.082C465.879 436.609 467.448 436.372 469.093 436.372C470.182 436.372 471.336 436.502 472.555 436.763C473.786 437.011 474.935 437.473 476 438.148C477.077 438.822 477.959 439.787 478.646 441.042C479.332 442.285 479.675 443.901 479.675 445.889V464H474.491V460.271H474.278C473.934 460.958 473.42 461.633 472.733 462.295C472.046 462.958 471.165 463.509 470.087 463.947C469.01 464.385 467.72 464.604 466.217 464.604ZM467.371 460.342C468.839 460.342 470.093 460.052 471.135 459.472C472.188 458.892 472.987 458.135 473.532 457.2C474.088 456.253 474.366 455.241 474.366 454.163V450.648C474.177 450.837 473.81 451.015 473.266 451.18C472.733 451.334 472.123 451.47 471.437 451.589C470.75 451.695 470.081 451.796 469.43 451.891C468.779 451.973 468.235 452.045 467.797 452.104C466.767 452.234 465.826 452.453 464.974 452.761C464.133 453.068 463.459 453.512 462.95 454.092C462.452 454.661 462.204 455.418 462.204 456.365C462.204 457.679 462.689 458.673 463.66 459.348C464.63 460.011 465.867 460.342 467.371 460.342ZM498.181 474.795C496.015 474.795 494.151 474.511 492.588 473.943C491.038 473.375 489.771 472.623 488.789 471.688C487.806 470.753 487.072 469.729 486.587 468.616L491.15 466.734C491.47 467.255 491.896 467.806 492.428 468.386C492.973 468.978 493.707 469.481 494.63 469.895C495.565 470.309 496.767 470.516 498.235 470.516C500.247 470.516 501.91 470.025 503.224 469.043C504.538 468.072 505.195 466.521 505.195 464.391V459.028H504.857C504.538 459.608 504.076 460.254 503.472 460.964C502.881 461.674 502.064 462.29 501.022 462.81C499.981 463.331 498.625 463.592 496.956 463.592C494.802 463.592 492.86 463.089 491.132 462.082C489.416 461.064 488.055 459.567 487.048 457.59C486.054 455.602 485.557 453.157 485.557 450.257C485.557 447.357 486.048 444.871 487.031 442.8C488.025 440.728 489.386 439.142 491.115 438.041C492.843 436.929 494.802 436.372 496.992 436.372C498.684 436.372 500.052 436.656 501.093 437.224C502.135 437.781 502.946 438.432 503.526 439.178C504.118 439.923 504.573 440.58 504.893 441.148H505.284V436.727H510.486V464.604C510.486 466.947 509.941 468.871 508.852 470.374C507.763 471.878 506.29 472.99 504.431 473.712C502.585 474.434 500.501 474.795 498.181 474.795ZM498.128 459.188C499.655 459.188 500.945 458.833 501.999 458.123C503.064 457.401 503.869 456.371 504.414 455.033C504.97 453.684 505.248 452.068 505.248 450.186C505.248 448.351 504.976 446.736 504.431 445.339C503.887 443.942 503.088 442.853 502.034 442.072C500.981 441.279 499.679 440.882 498.128 440.882C496.53 440.882 495.198 441.296 494.133 442.125C493.068 442.942 492.263 444.054 491.718 445.463C491.186 446.872 490.919 448.446 490.919 450.186C490.919 451.973 491.191 453.542 491.736 454.891C492.28 456.241 493.085 457.294 494.151 458.052C495.228 458.809 496.554 459.188 498.128 459.188ZM517.606 464V436.727H522.915V464H517.606ZM520.287 432.519C519.364 432.519 518.571 432.211 517.908 431.596C517.257 430.969 516.931 430.223 516.931 429.359C516.931 428.483 517.257 427.737 517.908 427.121C518.571 426.494 519.364 426.18 520.287 426.18C521.21 426.18 521.998 426.494 522.649 427.121C523.311 427.737 523.643 428.483 523.643 429.359C523.643 430.223 523.311 430.969 522.649 431.596C521.998 432.211 521.21 432.519 520.287 432.519ZM541.545 464.55C538.905 464.55 536.633 463.953 534.727 462.757C532.833 461.55 531.377 459.887 530.359 457.768C529.341 455.649 528.832 453.222 528.832 450.488C528.832 447.718 529.353 445.274 530.395 443.155C531.436 441.024 532.904 439.361 534.798 438.165C536.692 436.97 538.923 436.372 541.492 436.372C543.563 436.372 545.41 436.757 547.032 437.526C548.653 438.284 549.961 439.349 550.956 440.722C551.962 442.095 552.56 443.699 552.749 445.534H547.582C547.298 444.256 546.647 443.155 545.629 442.232C544.623 441.308 543.273 440.847 541.581 440.847C540.101 440.847 538.805 441.237 537.692 442.018C536.591 442.788 535.733 443.889 535.118 445.321C534.502 446.741 534.194 448.422 534.194 450.364C534.194 452.352 534.496 454.069 535.1 455.513C535.703 456.957 536.556 458.076 537.657 458.869C538.769 459.662 540.077 460.058 541.581 460.058C542.587 460.058 543.498 459.875 544.315 459.508C545.144 459.129 545.836 458.59 546.392 457.892C546.961 457.194 547.357 456.353 547.582 455.371H552.749C552.56 457.134 551.985 458.709 551.027 460.094C550.068 461.479 548.783 462.568 547.174 463.361C545.576 464.154 543.699 464.55 541.545 464.55ZM579.205 464L569.12 427.636H574.89L581.975 455.797H582.312L589.681 427.636H595.398L602.767 455.815H603.104L610.171 427.636H615.959L605.856 464H600.334L592.681 436.763H592.397L584.745 464H579.205ZM620.536 464V436.727H625.845V464H620.536ZM623.217 432.519C622.294 432.519 621.5 432.211 620.838 431.596C620.186 430.969 619.861 430.223 619.861 429.359C619.861 428.483 620.186 427.737 620.838 427.121C621.5 426.494 622.294 426.18 623.217 426.18C624.14 426.18 624.927 426.494 625.578 427.121C626.241 427.737 626.573 428.483 626.573 429.359C626.573 430.223 626.241 430.969 625.578 431.596C624.927 432.211 624.14 432.519 623.217 432.519ZM645.718 436.727V440.989H630.821V436.727H645.718ZM634.816 430.193H640.125V455.992C640.125 457.022 640.279 457.797 640.586 458.318C640.894 458.827 641.291 459.176 641.776 459.366C642.273 459.543 642.812 459.632 643.392 459.632C643.818 459.632 644.191 459.603 644.51 459.543C644.83 459.484 645.078 459.437 645.256 459.401L646.215 463.787C645.907 463.905 645.469 464.024 644.901 464.142C644.333 464.272 643.623 464.343 642.77 464.355C641.373 464.379 640.071 464.13 638.864 463.609C637.657 463.089 636.68 462.284 635.934 461.195C635.189 460.106 634.816 458.738 634.816 457.093V430.193ZM657.485 447.807V464H652.176V427.636H657.414V441.166H657.752C658.391 439.698 659.367 438.532 660.681 437.668C661.995 436.804 663.712 436.372 665.83 436.372C667.701 436.372 669.334 436.757 670.731 437.526C672.14 438.296 673.229 439.444 673.998 440.971C674.779 442.486 675.17 444.38 675.17 446.653V464H669.861V447.292C669.861 445.291 669.346 443.741 668.316 442.64C667.286 441.527 665.854 440.971 664.019 440.971C662.765 440.971 661.64 441.237 660.646 441.77C659.663 442.303 658.888 443.084 658.32 444.114C657.763 445.132 657.485 446.363 657.485 447.807ZM698.985 464H693.161L706.247 427.636H712.586L725.672 464H719.848L709.567 434.241H709.283L698.985 464ZM699.961 449.76H718.853V454.376H699.961V449.76ZM730.497 474.227V436.727H735.681V441.148H736.125C736.433 440.58 736.877 439.923 737.457 439.178C738.037 438.432 738.842 437.781 739.872 437.224C740.901 436.656 742.263 436.372 743.955 436.372C746.157 436.372 748.122 436.929 749.85 438.041C751.579 439.154 752.934 440.758 753.916 442.853C754.911 444.948 755.408 447.469 755.408 450.417C755.408 453.364 754.917 455.892 753.934 457.999C752.952 460.094 751.602 461.71 749.886 462.846C748.169 463.97 746.21 464.533 744.009 464.533C742.352 464.533 740.996 464.254 739.943 463.698C738.901 463.142 738.084 462.491 737.492 461.745C736.901 460.999 736.445 460.336 736.125 459.756H735.806V474.227H730.497ZM735.699 450.364C735.699 452.281 735.977 453.962 736.534 455.406C737.09 456.85 737.895 457.981 738.948 458.798C740.002 459.603 741.292 460.005 742.819 460.005C744.405 460.005 745.731 459.585 746.796 458.744C747.862 457.892 748.667 456.738 749.211 455.282C749.767 453.826 750.046 452.187 750.046 450.364C750.046 448.564 749.773 446.949 749.229 445.516C748.696 444.084 747.891 442.954 746.814 442.125C745.749 441.296 744.417 440.882 742.819 440.882C741.28 440.882 739.978 441.279 738.913 442.072C737.859 442.865 737.06 443.972 736.516 445.392C735.971 446.812 735.699 448.47 735.699 450.364ZM761.356 474.227V436.727H766.541V441.148H766.985C767.292 440.58 767.736 439.923 768.316 439.178C768.896 438.432 769.701 437.781 770.731 437.224C771.761 436.656 773.122 436.372 774.815 436.372C777.017 436.372 778.981 436.929 780.71 438.041C782.438 439.154 783.793 440.758 784.776 442.853C785.77 444.948 786.267 447.469 786.267 450.417C786.267 453.364 785.776 455.892 784.794 457.999C783.811 460.094 782.462 461.71 780.745 462.846C779.029 463.97 777.07 464.533 774.868 464.533C773.211 464.533 771.856 464.254 770.802 463.698C769.76 463.142 768.944 462.491 768.352 461.745C767.76 460.999 767.304 460.336 766.985 459.756H766.665V474.227H761.356ZM766.558 450.364C766.558 452.281 766.837 453.962 767.393 455.406C767.949 456.85 768.754 457.981 769.808 458.798C770.861 459.603 772.151 460.005 773.678 460.005C775.265 460.005 776.59 459.585 777.656 458.744C778.721 457.892 779.526 456.738 780.07 455.282C780.627 453.826 780.905 452.187 780.905 450.364C780.905 448.564 780.633 446.949 780.088 445.516C779.556 444.084 778.751 442.954 777.673 442.125C776.608 441.296 775.276 440.882 773.678 440.882C772.14 440.882 770.838 441.279 769.772 442.072C768.719 442.865 767.92 443.972 767.375 445.392C766.831 446.812 766.558 448.47 766.558 450.364ZM797.524 427.636V464H792.215V427.636H797.524ZM816.421 464.55C813.734 464.55 811.42 463.976 809.478 462.828C807.549 461.668 806.057 460.04 805.004 457.945C803.962 455.838 803.441 453.37 803.441 450.541C803.441 447.748 803.962 445.286 805.004 443.155C806.057 441.024 807.525 439.361 809.407 438.165C811.301 436.97 813.515 436.372 816.048 436.372C817.587 436.372 819.078 436.627 820.522 437.136C821.967 437.645 823.263 438.444 824.411 439.533C825.559 440.622 826.465 442.036 827.127 443.776C827.79 445.504 828.122 447.606 828.122 450.08V451.962H806.442V447.984H822.919C822.919 446.588 822.635 445.351 822.067 444.273C821.499 443.184 820.7 442.326 819.67 441.699C818.652 441.071 817.457 440.758 816.083 440.758C814.592 440.758 813.29 441.125 812.177 441.859C811.076 442.581 810.224 443.528 809.62 444.7C809.029 445.86 808.733 447.12 808.733 448.482V451.589C808.733 453.412 809.052 454.962 809.691 456.241C810.342 457.519 811.248 458.496 812.408 459.17C813.568 459.833 814.923 460.165 816.474 460.165C817.48 460.165 818.398 460.023 819.226 459.739C820.055 459.443 820.771 459.005 821.375 458.425C821.978 457.845 822.44 457.129 822.76 456.276L827.784 457.182C827.382 458.661 826.66 459.958 825.618 461.07C824.588 462.171 823.292 463.029 821.73 463.645C820.179 464.249 818.409 464.55 816.421 464.55ZM838.575 427.636V431.045C838.575 432.052 838.386 433.111 838.007 434.224C837.64 435.325 837.119 436.384 836.445 437.402C835.77 438.42 834.977 439.296 834.066 440.03L831.438 438.148C832.136 437.13 832.74 436.047 833.249 434.898C833.77 433.75 834.03 432.484 834.03 431.099V427.636H838.575ZM860.699 443.386L855.887 444.238C855.686 443.622 855.366 443.036 854.928 442.48C854.502 441.924 853.922 441.468 853.188 441.113C852.454 440.758 851.537 440.58 850.436 440.58C848.933 440.58 847.678 440.918 846.672 441.592C845.666 442.255 845.163 443.113 845.163 444.167C845.163 445.078 845.5 445.812 846.175 446.369C846.85 446.925 847.939 447.381 849.442 447.736L853.774 448.73C856.284 449.31 858.154 450.204 859.385 451.411C860.616 452.619 861.232 454.187 861.232 456.116C861.232 457.75 860.758 459.206 859.811 460.484C858.876 461.751 857.568 462.745 855.887 463.467C854.218 464.189 852.283 464.55 850.081 464.55C847.027 464.55 844.535 463.899 842.606 462.597C840.677 461.283 839.493 459.419 839.055 457.004L844.186 456.223C844.506 457.561 845.163 458.573 846.157 459.259C847.151 459.934 848.448 460.271 850.046 460.271C851.786 460.271 853.177 459.91 854.218 459.188C855.26 458.454 855.781 457.561 855.781 456.507C855.781 455.655 855.461 454.939 854.822 454.359C854.195 453.779 853.23 453.341 851.928 453.045L847.311 452.033C844.766 451.453 842.884 450.529 841.665 449.263C840.458 447.996 839.854 446.392 839.854 444.451C839.854 442.841 840.304 441.433 841.203 440.225C842.103 439.018 843.346 438.077 844.932 437.402C846.518 436.715 848.335 436.372 850.383 436.372C853.33 436.372 855.651 437.011 857.343 438.29C859.036 439.556 860.155 441.255 860.699 443.386ZM880.727 464V427.636H903.277V432.359H886.214V443.439H901.661V448.144H886.214V464H880.727ZM919.084 464.55C916.527 464.55 914.296 463.964 912.39 462.793C910.484 461.621 909.005 459.981 907.951 457.874C906.898 455.767 906.371 453.305 906.371 450.488C906.371 447.659 906.898 445.185 907.951 443.066C909.005 440.947 910.484 439.302 912.39 438.13C914.296 436.958 916.527 436.372 919.084 436.372C921.641 436.372 923.872 436.958 925.778 438.13C927.684 439.302 929.163 440.947 930.217 443.066C931.27 445.185 931.797 447.659 931.797 450.488C931.797 453.305 931.27 455.767 930.217 457.874C929.163 459.981 927.684 461.621 925.778 462.793C923.872 463.964 921.641 464.55 919.084 464.55ZM919.102 460.094C920.759 460.094 922.132 459.656 923.221 458.78C924.31 457.904 925.115 456.738 925.636 455.282C926.169 453.826 926.435 452.222 926.435 450.47C926.435 448.73 926.169 447.132 925.636 445.676C925.115 444.208 924.31 443.031 923.221 442.143C922.132 441.255 920.759 440.811 919.102 440.811C917.433 440.811 916.048 441.255 914.947 442.143C913.858 443.031 913.047 444.208 912.515 445.676C911.994 447.132 911.733 448.73 911.733 450.47C911.733 452.222 911.994 453.826 912.515 455.282C913.047 456.738 913.858 457.904 914.947 458.78C916.048 459.656 917.433 460.094 919.102 460.094ZM949.211 464.55C946.571 464.55 944.299 463.953 942.393 462.757C940.499 461.55 939.043 459.887 938.025 457.768C937.007 455.649 936.498 453.222 936.498 450.488C936.498 447.718 937.019 445.274 938.061 443.155C939.102 441.024 940.57 439.361 942.464 438.165C944.358 436.97 946.589 436.372 949.158 436.372C951.229 436.372 953.076 436.757 954.698 437.526C956.319 438.284 957.627 439.349 958.622 440.722C959.628 442.095 960.226 443.699 960.415 445.534H955.248C954.964 444.256 954.313 443.155 953.295 442.232C952.289 441.308 950.939 440.847 949.247 440.847C947.767 440.847 946.471 441.237 945.358 442.018C944.257 442.788 943.399 443.889 942.784 445.321C942.168 446.741 941.86 448.422 941.86 450.364C941.86 452.352 942.162 454.069 942.766 455.513C943.369 456.957 944.222 458.076 945.323 458.869C946.435 459.662 947.743 460.058 949.247 460.058C950.253 460.058 951.164 459.875 951.981 459.508C952.81 459.129 953.502 458.59 954.058 457.892C954.627 457.194 955.023 456.353 955.248 455.371H960.415C960.226 457.134 959.651 458.709 958.693 460.094C957.734 461.479 956.45 462.568 954.84 463.361C953.242 464.154 951.365 464.55 949.211 464.55ZM983.369 452.69V436.727H988.695V464H983.475V459.277H983.191C982.564 460.733 981.558 461.946 980.173 462.917C978.799 463.876 977.089 464.355 975.041 464.355C973.289 464.355 971.739 463.97 970.389 463.201C969.052 462.42 967.998 461.266 967.229 459.739C966.471 458.212 966.092 456.324 966.092 454.075V436.727H971.401V453.435C971.401 455.294 971.916 456.773 972.946 457.874C973.976 458.975 975.313 459.526 976.959 459.526C977.953 459.526 978.942 459.277 979.924 458.78C980.918 458.283 981.741 457.531 982.392 456.525C983.055 455.519 983.38 454.24 983.369 452.69ZM1016.27 443.386L1011.45 444.238C1011.25 443.622 1010.93 443.036 1010.49 442.48C1010.07 441.924 1009.49 441.468 1008.75 441.113C1008.02 440.758 1007.1 440.58 1006 440.58C1004.5 440.58 1003.24 440.918 1002.24 441.592C1001.23 442.255 1000.73 443.113 1000.73 444.167C1000.73 445.078 1001.07 445.812 1001.74 446.369C1002.42 446.925 1003.51 447.381 1005.01 447.736L1009.34 448.73C1011.85 449.31 1013.72 450.204 1014.95 451.411C1016.18 452.619 1016.8 454.187 1016.8 456.116C1016.8 457.75 1016.32 459.206 1015.38 460.484C1014.44 461.751 1013.13 462.745 1011.45 463.467C1009.78 464.189 1007.85 464.55 1005.65 464.55C1002.59 464.55 1000.1 463.899 998.172 462.597C996.243 461.283 995.059 459.419 994.621 457.004L999.753 456.223C1000.07 457.561 1000.73 458.573 1001.72 459.259C1002.72 459.934 1004.01 460.271 1005.61 460.271C1007.35 460.271 1008.74 459.91 1009.78 459.188C1010.83 458.454 1011.35 457.561 1011.35 456.507C1011.35 455.655 1011.03 454.939 1010.39 454.359C1009.76 453.779 1008.8 453.341 1007.49 453.045L1002.88 452.033C1000.33 451.453 998.451 450.529 997.231 449.263C996.024 447.996 995.42 446.392 995.42 444.451C995.42 442.841 995.87 441.433 996.77 440.225C997.669 439.018 998.912 438.077 1000.5 437.402C1002.08 436.715 1003.9 436.372 1005.95 436.372C1008.9 436.372 1011.22 437.011 1012.91 438.29C1014.6 439.556 1015.72 441.255 1016.27 443.386ZM1039.37 464H1033.54L1046.63 427.636H1052.97L1066.05 464H1060.23L1049.95 434.241H1049.66L1039.37 464ZM1040.34 449.76H1059.23V454.376H1040.34V449.76ZM1071.3 464V427.636H1084.27C1087.09 427.636 1089.44 428.151 1091.3 429.181C1093.15 430.211 1094.55 431.62 1095.47 433.407C1096.39 435.183 1096.85 437.183 1096.85 439.408C1096.85 441.646 1096.39 443.658 1095.45 445.445C1094.53 447.221 1093.13 448.629 1091.26 449.671C1089.4 450.701 1087.06 451.216 1084.25 451.216H1075.33V446.564H1083.75C1085.54 446.564 1086.99 446.256 1088.1 445.641C1089.21 445.013 1090.03 444.161 1090.55 443.084C1091.07 442.007 1091.33 440.781 1091.33 439.408C1091.33 438.035 1091.07 436.816 1090.55 435.751C1090.03 434.685 1089.21 433.851 1088.08 433.247C1086.97 432.643 1085.5 432.342 1083.68 432.342H1076.79V464H1071.3ZM1108.77 427.636V464H1103.29V427.636H1108.77ZM1129.57 464V436.727H1134.88V464H1129.57ZM1132.25 432.519C1131.33 432.519 1130.53 432.211 1129.87 431.596C1129.22 430.969 1128.89 430.223 1128.89 429.359C1128.89 428.483 1129.22 427.737 1129.87 427.121C1130.53 426.494 1131.33 426.18 1132.25 426.18C1133.17 426.18 1133.96 426.494 1134.61 427.121C1135.27 427.737 1135.61 428.483 1135.61 429.359C1135.61 430.223 1135.27 430.969 1134.61 431.596C1133.96 432.211 1133.17 432.519 1132.25 432.519ZM1147.33 447.807V464H1142.02V436.727H1147.12V441.166H1147.45C1148.08 439.722 1149.06 438.562 1150.4 437.686C1151.75 436.81 1153.45 436.372 1155.5 436.372C1157.36 436.372 1158.98 436.763 1160.38 437.544C1161.78 438.313 1162.86 439.462 1163.63 440.989C1164.4 442.516 1164.78 444.404 1164.78 446.653V464H1159.47V447.292C1159.47 445.315 1158.96 443.77 1157.93 442.658C1156.9 441.533 1155.48 440.971 1153.69 440.971C1152.45 440.971 1151.36 441.237 1150.4 441.77C1149.45 442.303 1148.7 443.084 1148.15 444.114C1147.6 445.132 1147.33 446.363 1147.33 447.807ZM199.828 498.189C199.639 496.508 198.857 495.206 197.484 494.283C196.111 493.348 194.383 492.88 192.3 492.88C190.808 492.88 189.518 493.117 188.429 493.59C187.34 494.052 186.494 494.691 185.89 495.508C185.298 496.313 185.002 497.23 185.002 498.26C185.002 499.124 185.203 499.87 185.606 500.497C186.02 501.125 186.559 501.651 187.222 502.077C187.896 502.492 188.618 502.841 189.388 503.125C190.157 503.397 190.897 503.622 191.607 503.8L195.158 504.723C196.318 505.007 197.508 505.392 198.727 505.877C199.946 506.362 201.077 507.002 202.119 507.795C203.16 508.588 204.001 509.57 204.64 510.742C205.291 511.914 205.616 513.317 205.616 514.95C205.616 517.01 205.084 518.839 204.018 520.437C202.965 522.035 201.432 523.295 199.42 524.219C197.419 525.142 194.999 525.604 192.158 525.604C189.435 525.604 187.08 525.172 185.091 524.308C183.102 523.443 181.546 522.218 180.421 520.632C179.297 519.034 178.675 517.14 178.557 514.95H184.061C184.168 516.264 184.594 517.359 185.339 518.235C186.097 519.099 187.062 519.744 188.234 520.17C189.417 520.585 190.714 520.792 192.122 520.792C193.673 520.792 195.052 520.549 196.259 520.064C197.478 519.567 198.437 518.88 199.136 518.004C199.834 517.116 200.183 516.081 200.183 514.897C200.183 513.82 199.875 512.938 199.26 512.251C198.656 511.565 197.834 510.997 196.792 510.547C195.762 510.097 194.596 509.701 193.294 509.357L188.997 508.185C186.085 507.392 183.777 506.226 182.072 504.688C180.38 503.149 179.533 501.113 179.533 498.58C179.533 496.484 180.102 494.656 181.238 493.093C182.374 491.531 183.913 490.317 185.854 489.453C187.796 488.577 189.986 488.139 192.424 488.139C194.886 488.139 197.058 488.571 198.94 489.435C200.834 490.299 202.326 491.489 203.415 493.004C204.504 494.508 205.072 496.236 205.119 498.189H199.828ZM217.659 525L209.634 497.727H215.12L220.465 517.756H220.731L226.093 497.727H231.58L236.906 517.667H237.173L242.482 497.727H247.968L239.96 525H234.545L229.005 505.309H228.597L223.057 525H217.659ZM253.006 525V497.727H258.315V525H253.006ZM255.688 493.519C254.764 493.519 253.971 493.211 253.308 492.596C252.657 491.969 252.332 491.223 252.332 490.359C252.332 489.483 252.657 488.737 253.308 488.121C253.971 487.494 254.764 487.18 255.688 487.18C256.611 487.18 257.398 487.494 258.049 488.121C258.712 488.737 259.043 489.483 259.043 490.359C259.043 491.223 258.712 491.969 258.049 492.596C257.398 493.211 256.611 493.519 255.688 493.519ZM278.437 497.727V501.989H263.025V497.727H278.437ZM267.251 525V494.567C267.251 492.862 267.624 491.448 268.369 490.323C269.115 489.187 270.104 488.34 271.335 487.784C272.566 487.216 273.903 486.932 275.347 486.932C276.413 486.932 277.324 487.021 278.082 487.198C278.839 487.364 279.402 487.518 279.769 487.66L278.526 491.957C278.277 491.886 277.958 491.803 277.567 491.708C277.176 491.602 276.703 491.548 276.146 491.548C274.856 491.548 273.933 491.868 273.377 492.507C272.832 493.146 272.56 494.07 272.56 495.277V525H267.251ZM296.645 497.727V501.989H281.748V497.727H296.645ZM285.743 491.193H291.052V516.992C291.052 518.022 291.206 518.797 291.514 519.318C291.822 519.827 292.218 520.176 292.704 520.366C293.201 520.543 293.739 520.632 294.319 520.632C294.746 520.632 295.118 520.603 295.438 520.543C295.758 520.484 296.006 520.437 296.184 520.401L297.143 524.787C296.835 524.905 296.397 525.024 295.829 525.142C295.26 525.272 294.55 525.343 293.698 525.355C292.301 525.379 290.999 525.13 289.792 524.609C288.584 524.089 287.608 523.284 286.862 522.195C286.116 521.106 285.743 519.738 285.743 518.093V491.193ZM326.328 488.636H331.833V512.553C331.833 515.098 331.235 517.353 330.039 519.318C328.844 521.271 327.163 522.81 324.997 523.935C322.831 525.047 320.292 525.604 317.38 525.604C314.48 525.604 311.946 525.047 309.78 523.935C307.614 522.81 305.933 521.271 304.738 519.318C303.542 517.353 302.944 515.098 302.944 512.553V488.636H308.431V512.109C308.431 513.755 308.792 515.217 309.514 516.495C310.248 517.773 311.283 518.78 312.621 519.513C313.959 520.236 315.545 520.597 317.38 520.597C319.226 520.597 320.818 520.236 322.156 519.513C323.505 518.78 324.535 517.773 325.245 516.495C325.967 515.217 326.328 513.755 326.328 512.109V488.636ZM345.296 488.636V525H339.809V488.636H345.296Z" fill="white"/>
</g>
<defs>
<clipPath id="clip0_20_3">
<rect width="1920" height="720" fill="white"/>
</clipPath>
<clipPath id="clip1_20_3">
<rect width="732" height="742" fill="white" transform="translate(1284 32)"/>
</clipPath>
</defs>
</svg>
