<svg width="3840" height="1440" viewBox="0 0 3840 1440" fill="none" xmlns="http://www.w3.org/2000/svg">
<g clip-path="url(#clip0_10_62)">
<rect width="3840" height="1440" fill="#0E182D"/>
<rect width="3840" height="1440" rx="2" fill="#0E182D" style="mix-blend-mode:darken"/>
<g clip-path="url(#clip1_10_62)">
<path d="M3887.34 1539.23C3912.45 1567.2 3953.62 1566.65 3976.73 1539.23C4000.83 1511.28 4001.34 1469.07 3976.73 1441.67L3358.02 764.167C3333.42 736.76 3291.73 736.76 3268.63 764.167C3244.03 791.574 3244.53 834.877 3268.63 861.736L3887.34 1539.23ZM3907.93 1495.38L3503.66 1053.59L3532.79 1021.79L3937.05 1464.14C3948.1 1476.2 3950.61 1488.26 3940.57 1500.32C3930.52 1510.19 3919.48 1507.99 3907.93 1495.38Z" fill="#F7941E"/>
<path d="M3079.31 1533.2C3089.85 1533.2 3096.88 1524.99 3098.39 1512.93C3121.49 1324.37 3127.01 1321.63 3303.28 1288.74C3315.34 1287.1 3322.37 1280.52 3322.37 1268.45C3322.37 1256.95 3315.34 1249.27 3305.29 1247.63C3128.02 1210.35 3121.49 1212 3098.39 1023.44C3096.88 1011.38 3089.85 1003.7 3079.31 1003.7C3069.26 1003.7 3061.73 1011.38 3060.72 1022.89C3036.62 1214.19 3032.6 1217.48 2853.32 1247.63C2843.78 1248.72 2836.24 1256.95 2836.24 1268.45C2836.24 1279.97 2843.78 1287.1 2853.32 1288.74C3032.6 1326.56 3036.12 1325.47 3060.72 1514.02C3061.73 1524.99 3069.26 1533.2 3079.31 1533.2ZM2771.96 922.031C2779.49 922.031 2784.01 916.002 2785.52 908.328C2808.62 778.967 2809.63 768.552 2935.68 744.434C2943.21 742.79 2948.23 737.857 2948.23 729.086C2948.23 720.316 2943.21 715.383 2935.68 713.738C2809.63 689.62 2808.62 679.206 2785.52 549.844C2784.01 542.17 2779.49 536.141 2771.96 536.141C2764.43 536.141 2759.41 542.17 2758.4 549.844C2735.3 679.206 2734.3 689.62 2608.25 713.738C2600.21 715.383 2595.19 720.316 2595.19 729.086C2595.19 737.857 2600.21 742.79 2608.25 744.434C2734.3 768.552 2735.3 778.967 2758.4 908.328C2759.41 916.002 2764.43 922.031 2771.96 922.031ZM3121.49 478.038C3128.02 478.038 3131.03 473.105 3132.54 466.527C3154.63 356.351 3154.63 349.225 3261.1 326.203C3267.63 324.559 3272.15 320.722 3272.15 313.596C3272.15 306.47 3267.63 302.085 3261.1 300.989C3154.63 277.418 3154.63 270.841 3132.54 160.665C3131.03 153.539 3128.02 149.154 3121.49 149.154C3114.96 149.154 3111.45 153.539 3109.94 160.665C3087.84 270.841 3088.35 277.418 2981.38 300.989C2974.85 302.085 2970.83 306.47 2970.83 313.596C2970.83 320.173 2974.85 324.559 2981.38 326.203C3088.35 349.225 3087.84 356.351 3109.94 466.527C3111.45 473.105 3114.96 478.038 3121.49 478.038ZM3648.29 721.412C3655.82 721.412 3660.85 715.93 3661.85 707.709C3684.95 578.896 3686.46 568.481 3812.01 543.815C3820.04 542.719 3825.06 537.238 3825.06 529.016C3825.06 520.245 3820.04 515.312 3812.01 513.668C3686.46 489.001 3684.95 478.587 3661.85 349.774C3660.85 341.551 3655.82 336.07 3648.29 336.07C3640.77 336.07 3636.24 341.551 3634.74 349.774C3611.63 478.587 3610.63 489.001 3484.58 513.668C3477.04 515.312 3472.02 520.245 3472.02 529.016C3472.02 537.238 3477.04 542.719 3484.58 543.815C3610.63 568.481 3611.63 578.896 3634.74 707.709C3636.24 715.93 3640.77 721.412 3648.29 721.412Z" fill="#F7941E"/>
</g>
<path d="M366.347 546V400.545H459.528V422.634H392.696V462.122H453.136V484.21H392.696V546H366.347ZM521.975 548.131C511.322 548.131 502.089 545.787 494.276 541.099C486.464 536.412 480.403 529.854 476.094 521.426C471.833 512.998 469.702 503.15 469.702 491.881C469.702 480.612 471.833 470.74 476.094 462.264C480.403 453.789 486.464 447.207 494.276 442.52C502.089 437.832 511.322 435.489 521.975 435.489C532.629 435.489 541.862 437.832 549.674 442.52C557.487 447.207 563.523 453.789 567.785 462.264C572.094 470.74 574.248 480.612 574.248 491.881C574.248 503.15 572.094 512.998 567.785 521.426C563.523 529.854 557.487 536.412 549.674 541.099C541.862 545.787 532.629 548.131 521.975 548.131ZM522.117 527.534C527.894 527.534 532.723 525.948 536.606 522.776C540.488 519.556 543.377 515.247 545.271 509.849C547.212 504.452 548.183 498.438 548.183 491.81C548.183 485.134 547.212 479.097 545.271 473.699C543.377 468.254 540.488 463.921 536.606 460.702C532.723 457.482 527.894 455.872 522.117 455.872C516.199 455.872 511.274 457.482 507.344 460.702C503.462 463.921 500.55 468.254 498.609 473.699C496.715 479.097 495.768 485.134 495.768 491.81C495.768 498.438 496.715 504.452 498.609 509.849C500.55 515.247 503.462 519.556 507.344 522.776C511.274 525.948 516.199 527.534 522.117 527.534ZM643.655 548.131C632.765 548.131 623.413 545.74 615.601 540.957C607.836 536.175 601.846 529.57 597.632 521.142C593.465 512.667 591.382 502.913 591.382 491.881C591.382 480.801 593.513 471.024 597.774 462.548C602.036 454.026 608.049 447.397 615.814 442.662C623.626 437.88 632.859 435.489 643.513 435.489C652.367 435.489 660.203 437.122 667.021 440.389C673.887 443.609 679.356 448.178 683.428 454.097C687.5 459.968 689.82 466.833 690.388 474.693H665.814C664.82 469.437 662.452 465.058 658.712 461.554C655.018 458.003 650.071 456.227 643.868 456.227C638.612 456.227 633.996 457.648 630.018 460.489C626.041 463.282 622.94 467.307 620.714 472.562C618.536 477.818 617.447 484.116 617.447 491.455C617.447 498.888 618.536 505.28 620.714 510.631C622.893 515.934 625.946 520.029 629.876 522.918C633.854 525.759 638.518 527.179 643.868 527.179C647.656 527.179 651.041 526.469 654.024 525.048C657.054 523.58 659.588 521.473 661.624 518.727C663.66 515.981 665.056 512.643 665.814 508.713H690.388C689.772 516.431 687.5 523.273 683.57 529.239C679.64 535.157 674.289 539.797 667.518 543.159C660.748 546.473 652.793 548.131 643.655 548.131ZM781.031 500.119V436.909H806.741V546H781.812V526.611H780.675C778.213 532.719 774.165 537.714 768.531 541.597C762.943 545.479 756.054 547.42 747.863 547.42C740.713 547.42 734.392 545.834 728.9 542.662C723.455 539.442 719.193 534.778 716.116 528.67C713.038 522.515 711.499 515.081 711.499 506.369V436.909H737.21V502.392C737.21 509.305 739.103 514.797 742.891 518.869C746.679 522.941 751.651 524.977 757.806 524.977C761.594 524.977 765.263 524.054 768.815 522.207C772.366 520.361 775.278 517.615 777.55 513.969C779.871 510.276 781.031 505.659 781.031 500.119ZM919.401 465.744L895.963 468.301C895.3 465.934 894.14 463.708 892.483 461.625C890.873 459.542 888.695 457.861 885.949 456.582C883.203 455.304 879.841 454.665 875.864 454.665C870.513 454.665 866.015 455.825 862.369 458.145C858.771 460.465 856.995 463.472 857.043 467.165C856.995 470.337 858.155 472.918 860.523 474.906C862.938 476.895 866.915 478.528 872.455 479.807L891.062 483.784C901.384 486.009 909.055 489.537 914.074 494.366C919.14 499.196 921.697 505.517 921.744 513.33C921.697 520.195 919.685 526.256 915.707 531.511C911.777 536.72 906.309 540.792 899.301 543.727C892.294 546.663 884.244 548.131 875.153 548.131C861.801 548.131 851.053 545.337 842.909 539.75C834.765 534.116 829.912 526.279 828.349 516.241L853.42 513.827C854.557 518.751 856.972 522.468 860.665 524.977C864.358 527.487 869.164 528.741 875.082 528.741C881.19 528.741 886.091 527.487 889.784 524.977C893.525 522.468 895.395 519.366 895.395 515.673C895.395 512.548 894.188 509.968 891.773 507.932C889.405 505.896 885.712 504.333 880.693 503.244L862.085 499.338C851.621 497.16 843.88 493.491 838.861 488.33C833.842 483.121 831.356 476.54 831.403 468.585C831.356 461.862 833.179 456.038 836.872 451.114C840.613 446.142 845.797 442.307 852.426 439.608C859.102 436.862 866.796 435.489 875.509 435.489C888.293 435.489 898.354 438.211 905.693 443.656C913.08 449.101 917.649 456.464 919.401 465.744ZM993.69 546V400.545H1048.24C1059.41 400.545 1068.79 402.629 1076.36 406.795C1083.98 410.962 1089.74 416.691 1093.62 423.983C1097.55 431.227 1099.51 439.466 1099.51 448.699C1099.51 458.027 1097.55 466.312 1093.62 473.557C1089.69 480.801 1083.89 486.507 1076.22 490.673C1068.55 494.793 1059.1 496.852 1047.88 496.852H1011.73V475.19H1044.33C1050.86 475.19 1056.21 474.054 1060.38 471.781C1064.55 469.509 1067.63 466.384 1069.61 462.406C1071.65 458.429 1072.67 453.86 1072.67 448.699C1072.67 443.538 1071.65 438.992 1069.61 435.062C1067.63 431.133 1064.52 428.079 1060.31 425.901C1056.14 423.675 1050.77 422.562 1044.19 422.562H1020.04V546H993.69ZM1167.29 548.131C1156.63 548.131 1147.4 545.787 1139.59 541.099C1131.78 536.412 1125.72 529.854 1121.41 521.426C1117.15 512.998 1115.01 503.15 1115.01 491.881C1115.01 480.612 1117.15 470.74 1121.41 462.264C1125.72 453.789 1131.78 447.207 1139.59 442.52C1147.4 437.832 1156.63 435.489 1167.29 435.489C1177.94 435.489 1187.17 437.832 1194.99 442.52C1202.8 447.207 1208.84 453.789 1213.1 462.264C1217.41 470.74 1219.56 480.612 1219.56 491.881C1219.56 503.15 1217.41 512.998 1213.1 521.426C1208.84 529.854 1202.8 536.412 1194.99 541.099C1187.17 545.787 1177.94 548.131 1167.29 548.131ZM1167.43 527.534C1173.21 527.534 1178.04 525.948 1181.92 522.776C1185.8 519.556 1188.69 515.247 1190.58 509.849C1192.52 504.452 1193.5 498.438 1193.5 491.81C1193.5 485.134 1192.52 479.097 1190.58 473.699C1188.69 468.254 1185.8 463.921 1181.92 460.702C1178.04 457.482 1173.21 455.872 1167.43 455.872C1161.51 455.872 1156.59 457.482 1152.66 460.702C1148.77 463.921 1145.86 468.254 1143.92 473.699C1142.03 479.097 1141.08 485.134 1141.08 491.81C1141.08 498.438 1142.03 504.452 1143.92 509.849C1145.86 515.247 1148.77 519.556 1152.66 522.776C1156.59 525.948 1161.51 527.534 1167.43 527.534ZM1288.97 548.131C1278.08 548.131 1268.73 545.74 1260.91 540.957C1253.15 536.175 1247.16 529.57 1242.94 521.142C1238.78 512.667 1236.69 502.913 1236.69 491.881C1236.69 480.801 1238.83 471.024 1243.09 462.548C1247.35 454.026 1253.36 447.397 1261.13 442.662C1268.94 437.88 1278.17 435.489 1288.83 435.489C1297.68 435.489 1305.52 437.122 1312.33 440.389C1319.2 443.609 1324.67 448.178 1328.74 454.097C1332.81 459.968 1335.13 466.833 1335.7 474.693H1311.13C1310.13 469.437 1307.76 465.058 1304.02 461.554C1300.33 458.003 1295.38 456.227 1289.18 456.227C1283.92 456.227 1279.31 457.648 1275.33 460.489C1271.35 463.282 1268.25 467.307 1266.03 472.562C1263.85 477.818 1262.76 484.116 1262.76 491.455C1262.76 498.888 1263.85 505.28 1266.03 510.631C1268.21 515.934 1271.26 520.029 1275.19 522.918C1279.17 525.759 1283.83 527.179 1289.18 527.179C1292.97 527.179 1296.35 526.469 1299.34 525.048C1302.37 523.58 1304.9 521.473 1306.94 518.727C1308.97 515.981 1310.37 512.643 1311.13 508.713H1335.7C1335.08 516.431 1332.81 523.273 1328.88 529.239C1324.95 535.157 1319.6 539.797 1312.83 543.159C1306.06 546.473 1298.11 548.131 1288.97 548.131ZM1426.34 500.119V436.909H1452.05V546H1427.12V526.611H1425.99C1423.53 532.719 1419.48 537.714 1413.84 541.597C1408.26 545.479 1401.37 547.42 1393.18 547.42C1386.03 547.42 1379.7 545.834 1374.21 542.662C1368.77 539.442 1364.51 534.778 1361.43 528.67C1358.35 522.515 1356.81 515.081 1356.81 506.369V436.909H1382.52V502.392C1382.52 509.305 1384.42 514.797 1388.2 518.869C1391.99 522.941 1396.96 524.977 1403.12 524.977C1406.91 524.977 1410.58 524.054 1414.13 522.207C1417.68 520.361 1420.59 517.615 1422.86 513.969C1425.18 510.276 1426.34 505.659 1426.34 500.119ZM1564.71 465.744L1541.28 468.301C1540.61 465.934 1539.45 463.708 1537.8 461.625C1536.19 459.542 1534.01 457.861 1531.26 456.582C1528.52 455.304 1525.15 454.665 1521.18 454.665C1515.83 454.665 1511.33 455.825 1507.68 458.145C1504.08 460.465 1502.31 463.472 1502.36 467.165C1502.31 470.337 1503.47 472.918 1505.84 474.906C1508.25 476.895 1512.23 478.528 1517.77 479.807L1536.38 483.784C1546.7 486.009 1554.37 489.537 1559.39 494.366C1564.45 499.196 1567.01 505.517 1567.06 513.33C1567.01 520.195 1565 526.256 1561.02 531.511C1557.09 536.72 1551.62 540.792 1544.61 543.727C1537.61 546.663 1529.56 548.131 1520.47 548.131C1507.11 548.131 1496.37 545.337 1488.22 539.75C1480.08 534.116 1475.22 526.279 1473.66 516.241L1498.73 513.827C1499.87 518.751 1502.28 522.468 1505.98 524.977C1509.67 527.487 1514.48 528.741 1520.39 528.741C1526.5 528.741 1531.4 527.487 1535.1 524.977C1538.84 522.468 1540.71 519.366 1540.71 515.673C1540.71 512.548 1539.5 509.968 1537.09 507.932C1534.72 505.896 1531.02 504.333 1526.01 503.244L1507.4 499.338C1496.93 497.16 1489.19 493.491 1484.17 488.33C1479.15 483.121 1476.67 476.54 1476.72 468.585C1476.67 461.862 1478.49 456.038 1482.18 451.114C1485.93 446.142 1491.11 442.307 1497.74 439.608C1504.41 436.862 1512.11 435.489 1520.82 435.489C1533.61 435.489 1543.67 438.211 1551.01 443.656C1558.39 449.101 1562.96 456.464 1564.71 465.744ZM406.759 836.273H417.767V884.107C417.767 889.196 416.571 893.706 414.18 897.636C411.789 901.543 408.428 904.62 404.095 906.869C399.763 909.095 394.685 910.207 388.861 910.207C383.061 910.207 377.994 909.095 373.662 906.869C369.33 904.62 365.968 901.543 363.577 897.636C361.186 893.706 359.99 889.196 359.99 884.107V836.273H370.963V883.219C370.963 886.509 371.685 889.433 373.129 891.99C374.597 894.547 376.669 896.559 379.344 898.027C382.019 899.471 385.191 900.193 388.861 900.193C392.554 900.193 395.738 899.471 398.413 898.027C401.112 896.559 403.172 894.547 404.592 891.99C406.036 889.433 406.759 886.509 406.759 883.219V836.273ZM443.486 876.614V909H432.868V854.455H443.06V863.332H443.735C444.989 860.444 446.954 858.124 449.63 856.372C452.328 854.62 455.726 853.744 459.821 853.744C463.538 853.744 466.793 854.526 469.587 856.088C472.381 857.627 474.547 859.923 476.086 862.977C477.624 866.031 478.394 869.807 478.394 874.305V909H467.776V875.584C467.776 871.63 466.746 868.541 464.686 866.315C462.627 864.066 459.798 862.942 456.199 862.942C453.737 862.942 451.547 863.474 449.63 864.54C447.736 865.605 446.232 867.168 445.12 869.227C444.031 871.263 443.486 873.725 443.486 876.614ZM537.343 854.455L517.563 909H506.199L486.384 854.455H497.783L511.597 896.429H512.165L525.944 854.455H537.343ZM568.974 910.101C563.6 910.101 558.972 908.953 555.089 906.656C551.231 904.336 548.248 901.081 546.141 896.891C544.057 892.677 543.016 887.741 543.016 882.082C543.016 876.495 544.057 871.571 546.141 867.31C548.248 863.048 551.183 859.722 554.947 857.331C558.735 854.94 563.162 853.744 568.229 853.744C571.306 853.744 574.289 854.253 577.178 855.271C580.066 856.289 582.658 857.887 584.955 860.065C587.251 862.243 589.062 865.072 590.388 868.553C591.714 872.009 592.376 876.211 592.376 881.159V884.923H549.017V876.969H581.972C581.972 874.175 581.403 871.701 580.267 869.547C579.131 867.369 577.533 865.652 575.473 864.398C573.437 863.143 571.046 862.516 568.3 862.516C565.317 862.516 562.713 863.25 560.487 864.717C558.286 866.161 556.581 868.055 555.374 870.399C554.19 872.719 553.598 875.241 553.598 877.963V884.178C553.598 887.823 554.237 890.925 555.516 893.482C556.818 896.038 558.629 897.991 560.949 899.341C563.269 900.667 565.98 901.33 569.081 901.33C571.093 901.33 572.928 901.045 574.585 900.477C576.242 899.885 577.675 899.009 578.882 897.849C580.089 896.689 581.013 895.257 581.652 893.553L591.702 895.364C590.897 898.323 589.453 900.915 587.369 903.141C585.31 905.342 582.717 907.059 579.592 908.29C576.491 909.497 572.952 910.101 568.974 910.101ZM604.157 909V854.455H614.775V909H604.157ZM609.52 846.038C607.673 846.038 606.087 845.423 604.761 844.192C603.459 842.937 602.808 841.446 602.808 839.717C602.808 837.965 603.459 836.474 604.761 835.243C606.087 833.988 607.673 833.361 609.52 833.361C611.366 833.361 612.94 833.988 614.243 835.243C615.568 836.474 616.231 837.965 616.231 839.717C616.231 841.446 615.568 842.937 614.243 844.192C612.94 845.423 611.366 846.038 609.52 846.038ZM639.678 836.273V909H629.06V836.273H639.678ZM653.962 909V854.455H664.58V909H653.962ZM659.324 846.038C657.478 846.038 655.891 845.423 654.566 844.192C653.264 842.937 652.613 841.446 652.613 839.717C652.613 837.965 653.264 836.474 654.566 835.243C655.891 833.988 657.478 833.361 659.324 833.361C661.171 833.361 662.745 833.988 664.047 835.243C665.373 836.474 666.036 837.965 666.036 839.717C666.036 841.446 665.373 842.937 664.047 844.192C662.745 845.423 661.171 846.038 659.324 846.038ZM689.482 876.614V909H678.864V854.455H689.056V863.332H689.731C690.986 860.444 692.951 858.124 695.626 856.372C698.325 854.62 701.722 853.744 705.817 853.744C709.534 853.744 712.79 854.526 715.583 856.088C718.377 857.627 720.543 859.923 722.082 862.977C723.621 866.031 724.39 869.807 724.39 874.305V909H713.772V875.584C713.772 871.63 712.742 868.541 710.683 866.315C708.623 864.066 705.794 862.942 702.195 862.942C699.733 862.942 697.543 863.474 695.626 864.54C693.732 865.605 692.228 867.168 691.116 869.227C690.027 871.263 689.482 873.725 689.482 876.614ZM761.499 930.591C757.167 930.591 753.438 930.023 750.313 928.886C747.212 927.75 744.679 926.247 742.714 924.376C740.749 922.506 739.281 920.458 738.31 918.233L747.437 914.469C748.076 915.51 748.928 916.611 749.994 917.771C751.083 918.955 752.55 919.961 754.397 920.79C756.267 921.618 758.67 922.033 761.606 922.033C765.63 922.033 768.957 921.05 771.585 919.085C774.212 917.144 775.526 914.043 775.526 909.781V899.057H774.852C774.212 900.217 773.289 901.507 772.082 902.928C770.898 904.348 769.264 905.579 767.181 906.621C765.098 907.662 762.387 908.183 759.049 908.183C754.74 908.183 750.858 907.177 747.401 905.165C743.969 903.129 741.246 900.134 739.234 896.18C737.245 892.203 736.251 887.314 736.251 881.514C736.251 875.714 737.233 870.742 739.198 866.599C741.187 862.456 743.909 859.284 747.366 857.082C750.822 854.857 754.74 853.744 759.12 853.744C762.505 853.744 765.24 854.312 767.323 855.449C769.406 856.562 771.028 857.864 772.188 859.355C773.372 860.847 774.283 862.161 774.923 863.297H775.704V854.455H786.109V910.207C786.109 914.895 785.02 918.742 782.842 921.749C780.664 924.755 777.716 926.981 773.999 928.425C770.306 929.869 766.139 930.591 761.499 930.591ZM761.393 899.376C764.447 899.376 767.027 898.666 769.134 897.246C771.265 895.802 772.875 893.742 773.964 891.067C775.076 888.368 775.633 885.136 775.633 881.372C775.633 877.703 775.088 874.471 773.999 871.678C772.91 868.884 771.312 866.706 769.205 865.143C767.098 863.557 764.494 862.764 761.393 862.764C758.197 862.764 755.533 863.593 753.403 865.25C751.272 866.884 749.662 869.109 748.573 871.926C747.508 874.743 746.975 877.892 746.975 881.372C746.975 884.947 747.52 888.084 748.609 890.783C749.698 893.482 751.308 895.589 753.438 897.104C755.593 898.619 758.244 899.376 761.393 899.376ZM827.666 836.273H840.983L864.136 892.807H864.988L888.142 836.273H901.458V909H891.018V856.372H890.343L868.895 908.893H860.23L838.781 856.337H838.106V909H827.666V836.273ZM932.433 910.207C928.977 910.207 925.852 909.568 923.058 908.29C920.265 906.988 918.051 905.106 916.418 902.643C914.808 900.181 914.003 897.163 914.003 893.588C914.003 890.51 914.595 887.977 915.778 885.989C916.962 884 918.56 882.426 920.572 881.266C922.585 880.106 924.834 879.23 927.32 878.638C929.805 878.046 932.339 877.596 934.919 877.288C938.186 876.91 940.838 876.602 942.874 876.365C944.91 876.105 946.389 875.69 947.312 875.122C948.236 874.554 948.697 873.631 948.697 872.352V872.104C948.697 869.002 947.821 866.599 946.07 864.895C944.341 863.19 941.761 862.338 938.328 862.338C934.753 862.338 931.936 863.131 929.876 864.717C927.84 866.28 926.432 868.02 925.651 869.938L915.672 867.665C916.856 864.35 918.584 861.675 920.857 859.639C923.153 857.58 925.793 856.088 928.776 855.165C931.759 854.218 934.895 853.744 938.186 853.744C940.364 853.744 942.672 854.005 945.111 854.526C947.573 855.023 949.869 855.946 952 857.295C954.154 858.645 955.918 860.574 957.291 863.084C958.664 865.57 959.351 868.801 959.351 872.778V909H948.982V901.543H948.555C947.869 902.916 946.839 904.265 945.466 905.591C944.093 906.917 942.329 908.018 940.175 908.893C938.02 909.769 935.44 910.207 932.433 910.207ZM934.741 901.685C937.677 901.685 940.187 901.105 942.27 899.945C944.377 898.785 945.975 897.269 947.064 895.399C948.177 893.505 948.733 891.481 948.733 889.327V882.295C948.354 882.674 947.62 883.029 946.531 883.361C945.466 883.669 944.247 883.941 942.874 884.178C941.5 884.391 940.163 884.592 938.861 884.781C937.559 884.947 936.47 885.089 935.594 885.207C933.534 885.468 931.652 885.906 929.947 886.521C928.267 887.137 926.917 888.025 925.899 889.185C924.905 890.321 924.408 891.836 924.408 893.73C924.408 896.358 925.378 898.347 927.32 899.696C929.261 901.022 931.735 901.685 934.741 901.685ZM996.363 930.591C992.03 930.591 988.301 930.023 985.176 928.886C982.075 927.75 979.542 926.247 977.577 924.376C975.612 922.506 974.144 920.458 973.174 918.233L982.3 914.469C982.939 915.51 983.792 916.611 984.857 917.771C985.946 918.955 987.414 919.961 989.26 920.79C991.131 921.618 993.533 922.033 996.469 922.033C1000.49 922.033 1003.82 921.05 1006.45 919.085C1009.08 917.144 1010.39 914.043 1010.39 909.781V899.057H1009.71C1009.08 900.217 1008.15 901.507 1006.94 902.928C1005.76 904.348 1004.13 905.579 1002.04 906.621C999.961 907.662 997.25 908.183 993.912 908.183C989.604 908.183 985.721 907.177 982.265 905.165C978.832 903.129 976.109 900.134 974.097 896.18C972.108 892.203 971.114 887.314 971.114 881.514C971.114 875.714 972.096 870.742 974.061 866.599C976.05 862.456 978.773 859.284 982.229 857.082C985.685 854.857 989.604 853.744 993.983 853.744C997.369 853.744 1000.1 854.312 1002.19 855.449C1004.27 856.562 1005.89 857.864 1007.05 859.355C1008.24 860.847 1009.15 862.161 1009.79 863.297H1010.57V854.455H1020.97V910.207C1020.97 914.895 1019.88 918.742 1017.7 921.749C1015.53 924.755 1012.58 926.981 1008.86 928.425C1005.17 929.869 1001 930.591 996.363 930.591ZM996.256 899.376C999.31 899.376 1001.89 898.666 1004 897.246C1006.13 895.802 1007.74 893.742 1008.83 891.067C1009.94 888.368 1010.5 885.136 1010.5 881.372C1010.5 877.703 1009.95 874.471 1008.86 871.678C1007.77 868.884 1006.18 866.706 1004.07 865.143C1001.96 863.557 999.357 862.764 996.256 862.764C993.06 862.764 990.397 863.593 988.266 865.25C986.135 866.884 984.525 869.109 983.436 871.926C982.371 874.743 981.838 877.892 981.838 881.372C981.838 884.947 982.383 888.084 983.472 890.783C984.561 893.482 986.171 895.589 988.301 897.104C990.456 898.619 993.107 899.376 996.256 899.376ZM1035.21 909V854.455H1045.83V909H1035.21ZM1040.57 846.038C1038.73 846.038 1037.14 845.423 1035.82 844.192C1034.51 842.937 1033.86 841.446 1033.86 839.717C1033.86 837.965 1034.51 836.474 1035.82 835.243C1037.14 833.988 1038.73 833.361 1040.57 833.361C1042.42 833.361 1044 833.988 1045.3 835.243C1046.62 836.474 1047.29 837.965 1047.29 839.717C1047.29 841.446 1046.62 842.937 1045.3 844.192C1044 845.423 1042.42 846.038 1040.57 846.038ZM1083.09 910.101C1077.81 910.101 1073.27 908.905 1069.45 906.514C1065.67 904.099 1062.75 900.773 1060.72 896.536C1058.68 892.298 1057.66 887.445 1057.66 881.976C1057.66 876.436 1058.71 871.547 1060.79 867.31C1062.87 863.048 1065.81 859.722 1069.6 857.331C1073.38 854.94 1077.85 853.744 1082.98 853.744C1087.13 853.744 1090.82 854.514 1094.06 856.053C1097.31 857.568 1099.92 859.698 1101.91 862.445C1103.92 865.191 1105.12 868.399 1105.5 872.068H1095.16C1094.6 869.511 1093.29 867.31 1091.26 865.463C1089.25 863.616 1086.55 862.693 1083.16 862.693C1080.2 862.693 1077.61 863.474 1075.38 865.037C1073.18 866.576 1071.47 868.777 1070.24 871.642C1069 874.483 1068.39 877.845 1068.39 881.727C1068.39 885.705 1068.99 889.137 1070.2 892.026C1071.41 894.914 1073.11 897.151 1075.31 898.737C1077.54 900.323 1080.15 901.116 1083.16 901.116C1085.17 901.116 1087 900.75 1088.63 900.016C1090.29 899.258 1091.67 898.181 1092.78 896.784C1093.92 895.387 1094.71 893.706 1095.16 891.741H1105.5C1105.12 895.269 1103.97 898.418 1102.05 901.188C1100.14 903.957 1097.57 906.135 1094.35 907.722C1091.15 909.308 1087.4 910.101 1083.09 910.101ZM1158.41 909L1138.24 836.273H1149.78L1163.95 892.594H1164.62L1179.36 836.273H1190.8L1205.53 892.629H1206.21L1220.34 836.273H1231.92L1211.71 909H1200.67L1185.36 854.526H1184.79L1169.49 909H1158.41ZM1241.07 909V854.455H1251.69V909H1241.07ZM1246.43 846.038C1244.59 846.038 1243 845.423 1241.68 844.192C1240.37 842.937 1239.72 841.446 1239.72 839.717C1239.72 837.965 1240.37 836.474 1241.68 835.243C1243 833.988 1244.59 833.361 1246.43 833.361C1248.28 833.361 1249.85 833.988 1251.16 835.243C1252.48 836.474 1253.15 837.965 1253.15 839.717C1253.15 841.446 1252.48 842.937 1251.16 844.192C1249.85 845.423 1248.28 846.038 1246.43 846.038ZM1291.44 854.455V862.977H1261.64V854.455H1291.44ZM1269.63 841.386H1280.25V892.984C1280.25 895.044 1280.56 896.595 1281.17 897.636C1281.79 898.654 1282.58 899.353 1283.55 899.732C1284.55 900.087 1285.62 900.264 1286.78 900.264C1287.64 900.264 1288.38 900.205 1289.02 900.087C1289.66 899.968 1290.16 899.874 1290.51 899.803L1292.43 908.574C1291.81 908.811 1290.94 909.047 1289.8 909.284C1288.67 909.545 1287.25 909.687 1285.54 909.71C1282.75 909.758 1280.14 909.26 1277.73 908.219C1275.31 907.177 1273.36 905.567 1271.87 903.389C1270.38 901.211 1269.63 898.477 1269.63 895.186V841.386ZM1314.97 876.614V909H1304.35V836.273H1314.83V863.332H1315.5C1316.78 860.397 1318.73 858.065 1321.36 856.337C1323.99 854.608 1327.42 853.744 1331.66 853.744C1335.4 853.744 1338.67 854.514 1341.46 856.053C1344.28 857.591 1346.46 859.888 1348 862.942C1349.56 865.972 1350.34 869.76 1350.34 874.305V909H1339.72V875.584C1339.72 871.583 1338.69 868.482 1336.63 866.28C1334.57 864.054 1331.71 862.942 1328.04 862.942C1325.53 862.942 1323.28 863.474 1321.29 864.54C1319.33 865.605 1317.78 867.168 1316.64 869.227C1315.53 871.263 1314.97 873.725 1314.97 876.614ZM1397.97 909H1386.32L1412.49 836.273H1425.17L1451.34 909H1439.7L1419.13 849.483H1418.57L1397.97 909ZM1399.92 880.52H1437.71V889.753H1399.92V880.52ZM1460.99 929.455V854.455H1471.36V863.297H1472.25C1472.87 862.161 1473.75 860.847 1474.91 859.355C1476.07 857.864 1477.68 856.562 1479.74 855.449C1481.8 854.312 1484.53 853.744 1487.91 853.744C1492.31 853.744 1496.24 854.857 1499.7 857.082C1503.16 859.308 1505.87 862.516 1507.83 866.706C1509.82 870.896 1510.82 875.939 1510.82 881.834C1510.82 887.729 1509.83 892.783 1507.87 896.997C1505.9 901.187 1503.2 904.419 1499.77 906.692C1496.34 908.941 1492.42 910.065 1488.02 910.065C1484.7 910.065 1481.99 909.509 1479.89 908.396C1477.8 907.284 1476.17 905.982 1474.98 904.49C1473.8 902.999 1472.89 901.673 1472.25 900.513H1471.61V929.455H1460.99ZM1471.4 881.727C1471.4 885.562 1471.95 888.924 1473.07 891.812C1474.18 894.701 1475.79 896.962 1477.9 898.595C1480 900.205 1482.58 901.01 1485.64 901.01C1488.81 901.01 1491.46 900.17 1493.59 898.489C1495.72 896.784 1497.33 894.476 1498.42 891.564C1499.53 888.652 1500.09 885.373 1500.09 881.727C1500.09 878.129 1499.55 874.897 1498.46 872.033C1497.39 869.168 1495.78 866.907 1493.63 865.25C1491.5 863.593 1488.83 862.764 1485.64 862.764C1482.56 862.764 1479.96 863.557 1477.83 865.143C1475.72 866.73 1474.12 868.943 1473.03 871.784C1471.94 874.625 1471.4 877.939 1471.4 881.727ZM1522.71 929.455V854.455H1533.08V863.297H1533.97C1534.58 862.161 1535.47 860.847 1536.63 859.355C1537.79 857.864 1539.4 856.562 1541.46 855.449C1543.52 854.312 1546.24 853.744 1549.63 853.744C1554.03 853.744 1557.96 854.857 1561.42 857.082C1564.88 859.308 1567.59 862.516 1569.55 866.706C1571.54 870.896 1572.53 875.939 1572.53 881.834C1572.53 887.729 1571.55 892.783 1569.59 896.997C1567.62 901.187 1564.92 904.419 1561.49 906.692C1558.06 908.941 1554.14 910.065 1549.74 910.065C1546.42 910.065 1543.71 909.509 1541.6 908.396C1539.52 907.284 1537.89 905.982 1536.7 904.49C1535.52 902.999 1534.61 901.673 1533.97 900.513H1533.33V929.455H1522.71ZM1533.12 881.727C1533.12 885.562 1533.67 888.924 1534.79 891.812C1535.9 894.701 1537.51 896.962 1539.62 898.595C1541.72 900.205 1544.3 901.01 1547.36 901.01C1550.53 901.01 1553.18 900.17 1555.31 898.489C1557.44 896.784 1559.05 894.476 1560.14 891.564C1561.25 888.652 1561.81 885.373 1561.81 881.727C1561.81 878.129 1561.27 874.897 1560.18 872.033C1559.11 869.168 1557.5 866.907 1555.35 865.25C1553.22 863.593 1550.55 862.764 1547.36 862.764C1544.28 862.764 1541.68 863.557 1539.54 865.143C1537.44 866.73 1535.84 868.943 1534.75 871.784C1533.66 874.625 1533.12 877.939 1533.12 881.727ZM1595.05 836.273V909H1584.43V836.273H1595.05ZM1632.84 910.101C1627.47 910.101 1622.84 908.953 1618.96 906.656C1615.1 904.336 1612.11 901.081 1610.01 896.891C1607.92 892.677 1606.88 887.741 1606.88 882.082C1606.88 876.495 1607.92 871.571 1610.01 867.31C1612.11 863.048 1615.05 859.722 1618.81 857.331C1622.6 854.94 1627.03 853.744 1632.1 853.744C1635.17 853.744 1638.16 854.253 1641.04 855.271C1643.93 856.289 1646.53 857.887 1648.82 860.065C1651.12 862.243 1652.93 865.072 1654.25 868.553C1655.58 872.009 1656.24 876.211 1656.24 881.159V884.923H1612.88V876.969H1645.84C1645.84 874.175 1645.27 871.701 1644.13 869.547C1643 867.369 1641.4 865.652 1639.34 864.398C1637.3 863.143 1634.91 862.516 1632.17 862.516C1629.18 862.516 1626.58 863.25 1624.35 864.717C1622.15 866.161 1620.45 868.055 1619.24 870.399C1618.06 872.719 1617.47 875.241 1617.47 877.963V884.178C1617.47 887.823 1618.1 890.925 1619.38 893.482C1620.68 896.038 1622.5 897.991 1624.82 899.341C1627.14 900.667 1629.85 901.33 1632.95 901.33C1634.96 901.33 1636.8 901.045 1638.45 900.477C1640.11 899.885 1641.54 899.009 1642.75 897.849C1643.96 896.689 1644.88 895.257 1645.52 893.553L1655.57 895.364C1654.76 898.323 1653.32 900.915 1651.24 903.141C1649.18 905.342 1646.58 907.059 1643.46 908.29C1640.36 909.497 1636.82 910.101 1632.84 910.101ZM1677.15 836.273V843.091C1677.15 845.103 1676.77 847.222 1676.01 849.447C1675.28 851.649 1674.24 853.768 1672.89 855.804C1671.54 857.84 1669.95 859.592 1668.13 861.06L1662.88 857.295C1664.27 855.259 1665.48 853.093 1666.5 850.797C1667.54 848.5 1668.06 845.967 1668.06 843.197V836.273H1677.15ZM1721.4 867.771L1711.77 869.476C1711.37 868.245 1710.73 867.073 1709.86 865.96C1709 864.848 1707.84 863.936 1706.38 863.226C1704.91 862.516 1703.07 862.161 1700.87 862.161C1697.87 862.161 1695.36 862.835 1693.34 864.185C1691.33 865.51 1690.33 867.227 1690.33 869.334C1690.33 871.157 1691 872.625 1692.35 873.737C1693.7 874.85 1695.88 875.761 1698.88 876.472L1707.55 878.46C1712.57 879.62 1716.31 881.408 1718.77 883.822C1721.23 886.237 1722.46 889.374 1722.46 893.233C1722.46 896.5 1721.52 899.412 1719.62 901.969C1717.75 904.502 1715.14 906.491 1711.77 907.935C1708.44 909.379 1704.57 910.101 1700.16 910.101C1694.05 910.101 1689.07 908.799 1685.21 906.195C1681.35 903.567 1678.99 899.838 1678.11 895.009L1688.37 893.446C1689.01 896.121 1690.33 898.145 1692.31 899.518C1694.3 900.868 1696.9 901.543 1700.09 901.543C1703.57 901.543 1706.35 900.821 1708.44 899.376C1710.52 897.909 1711.56 896.121 1711.56 894.014C1711.56 892.31 1710.92 890.877 1709.64 889.717C1708.39 888.557 1706.46 887.681 1703.86 887.089L1694.62 885.065C1689.53 883.905 1685.77 882.059 1683.33 879.526C1680.92 876.992 1679.71 873.785 1679.71 869.902C1679.71 866.682 1680.61 863.865 1682.41 861.45C1684.21 859.036 1686.69 857.153 1689.86 855.804C1693.04 854.431 1696.67 853.744 1700.77 853.744C1706.66 853.744 1711.3 855.023 1714.69 857.58C1718.07 860.113 1720.31 863.51 1721.4 867.771ZM1761.45 909V836.273H1806.55V845.719H1772.43V867.878H1803.32V877.288H1772.43V909H1761.45ZM1838.17 910.101C1833.05 910.101 1828.59 908.929 1824.78 906.585C1820.97 904.241 1818.01 900.963 1815.9 896.749C1813.8 892.535 1812.74 887.61 1812.74 881.976C1812.74 876.318 1813.8 871.37 1815.9 867.132C1818.01 862.894 1820.97 859.604 1824.78 857.26C1828.59 854.916 1833.05 853.744 1838.17 853.744C1843.28 853.744 1847.74 854.916 1851.56 857.26C1855.37 859.604 1858.33 862.894 1860.43 867.132C1862.54 871.37 1863.59 876.318 1863.59 881.976C1863.59 887.61 1862.54 892.535 1860.43 896.749C1858.33 900.963 1855.37 904.241 1851.56 906.585C1847.74 908.929 1843.28 910.101 1838.17 910.101ZM1838.2 901.188C1841.52 901.188 1844.26 900.312 1846.44 898.56C1848.62 896.808 1850.23 894.476 1851.27 891.564C1852.34 888.652 1852.87 885.444 1852.87 881.94C1852.87 878.46 1852.34 875.264 1851.27 872.352C1850.23 869.417 1848.62 867.061 1846.44 865.286C1844.26 863.51 1841.52 862.622 1838.2 862.622C1834.87 862.622 1832.1 863.51 1829.89 865.286C1827.72 867.061 1826.09 869.417 1825.03 872.352C1823.99 875.264 1823.47 878.46 1823.47 881.94C1823.47 885.444 1823.99 888.652 1825.03 891.564C1826.09 894.476 1827.72 896.808 1829.89 898.56C1832.1 900.312 1834.87 901.188 1838.2 901.188ZM1898.42 910.101C1893.14 910.101 1888.6 908.905 1884.79 906.514C1881 904.099 1878.09 900.773 1876.05 896.536C1874.01 892.298 1873 887.445 1873 881.976C1873 876.436 1874.04 871.547 1876.12 867.31C1878.2 863.048 1881.14 859.722 1884.93 857.331C1888.72 854.94 1893.18 853.744 1898.32 853.744C1902.46 853.744 1906.15 854.514 1909.4 856.053C1912.64 857.568 1915.25 859.698 1917.24 862.445C1919.26 865.191 1920.45 868.399 1920.83 872.068H1910.5C1909.93 869.511 1908.63 867.31 1906.59 865.463C1904.58 863.616 1901.88 862.693 1898.49 862.693C1895.53 862.693 1892.94 863.474 1890.72 865.037C1888.51 866.576 1886.8 868.777 1885.57 871.642C1884.34 874.483 1883.72 877.845 1883.72 881.727C1883.72 885.705 1884.32 889.137 1885.53 892.026C1886.74 894.914 1888.44 897.151 1890.65 898.737C1892.87 900.323 1895.49 901.116 1898.49 901.116C1900.51 901.116 1902.33 900.75 1903.96 900.016C1905.62 899.258 1907 898.181 1908.12 896.784C1909.25 895.387 1910.05 893.706 1910.5 891.741H1920.83C1920.45 895.269 1919.3 898.418 1917.39 901.188C1915.47 903.957 1912.9 906.135 1909.68 907.722C1906.48 909.308 1902.73 910.101 1898.42 910.101ZM1966.74 886.379V854.455H1977.39V909H1966.95V899.554H1966.38C1965.13 902.466 1963.12 904.893 1960.35 906.834C1957.6 908.751 1954.18 909.71 1950.08 909.71C1946.58 909.71 1943.48 908.941 1940.78 907.402C1938.1 905.839 1936 903.531 1934.46 900.477C1932.94 897.423 1932.18 893.647 1932.18 889.149V854.455H1942.8V887.871C1942.8 891.588 1943.83 894.547 1945.89 896.749C1947.95 898.95 1950.63 900.051 1953.92 900.051C1955.91 900.051 1957.88 899.554 1959.85 898.56C1961.84 897.565 1963.48 896.062 1964.78 894.05C1966.11 892.037 1966.76 889.481 1966.74 886.379ZM2032.53 867.771L2022.91 869.476C2022.5 868.245 2021.87 867.073 2020.99 865.96C2020.14 864.848 2018.98 863.936 2017.51 863.226C2016.04 862.516 2014.21 862.161 2012.01 862.161C2009 862.161 2006.49 862.835 2004.48 864.185C2002.46 865.51 2001.46 867.227 2001.46 869.334C2001.46 871.157 2002.13 872.625 2003.48 873.737C2004.83 874.85 2007.01 875.761 2010.02 876.472L2018.68 878.46C2023.7 879.62 2027.44 881.408 2029.9 883.822C2032.37 886.237 2033.6 889.374 2033.6 893.233C2033.6 896.5 2032.65 899.412 2030.76 901.969C2028.89 904.502 2026.27 906.491 2022.91 907.935C2019.57 909.379 2015.7 910.101 2011.3 910.101C2005.19 910.101 2000.2 908.799 1996.34 906.195C1992.49 903.567 1990.12 899.838 1989.24 895.009L1999.51 893.446C2000.14 896.121 2001.46 898.145 2003.45 899.518C2005.44 900.868 2008.03 901.543 2011.22 901.543C2014.7 901.543 2017.49 900.821 2019.57 899.376C2021.65 897.909 2022.69 896.121 2022.69 894.014C2022.69 892.31 2022.06 890.877 2020.78 889.717C2019.52 888.557 2017.59 887.681 2014.99 887.089L2005.76 885.065C2000.67 883.905 1996.9 882.059 1994.46 879.526C1992.05 876.992 1990.84 873.785 1990.84 869.902C1990.84 866.682 1991.74 863.865 1993.54 861.45C1995.34 859.036 1997.82 857.153 2001 855.804C2004.17 854.431 2007.8 853.744 2011.9 853.744C2017.79 853.744 2022.43 855.023 2025.82 857.58C2029.2 860.113 2031.44 863.51 2032.53 867.771ZM2078.73 909H2067.08L2093.26 836.273H2105.93L2132.1 909H2120.46L2099.9 849.483H2099.33L2078.73 909ZM2080.68 880.52H2118.47V889.753H2080.68V880.52ZM2142.61 909V836.273H2168.53C2174.19 836.273 2178.88 837.303 2182.59 839.362C2186.31 841.422 2189.09 844.239 2190.94 847.814C2192.78 851.365 2193.71 855.366 2193.71 859.817C2193.71 864.291 2192.77 868.316 2190.9 871.891C2189.06 875.442 2186.26 878.259 2182.52 880.342C2178.81 882.402 2174.13 883.432 2168.5 883.432H2150.67V874.128H2167.5C2171.08 874.128 2173.98 873.512 2176.2 872.281C2178.43 871.027 2180.06 869.322 2181.1 867.168C2182.14 865.013 2182.66 862.563 2182.66 859.817C2182.66 857.071 2182.14 854.632 2181.1 852.501C2180.06 850.371 2178.41 848.702 2176.17 847.494C2173.94 846.287 2171 845.683 2167.36 845.683H2153.58V909H2142.61ZM2217.55 836.273V909H2206.57V836.273H2217.55ZM2259.14 909V854.455H2269.76V909H2259.14ZM2264.5 846.038C2262.65 846.038 2261.07 845.423 2259.74 844.192C2258.44 842.937 2257.79 841.446 2257.79 839.717C2257.79 837.965 2258.44 836.474 2259.74 835.243C2261.07 833.988 2262.65 833.361 2264.5 833.361C2266.35 833.361 2267.92 833.988 2269.22 835.243C2270.55 836.474 2271.21 837.965 2271.21 839.717C2271.21 841.446 2270.55 842.937 2269.22 844.192C2267.92 845.423 2266.35 846.038 2264.5 846.038ZM2294.66 876.614V909H2284.04V854.455H2294.23V863.332H2294.91C2296.16 860.444 2298.13 858.124 2300.8 856.372C2303.5 854.62 2306.9 853.744 2310.99 853.744C2314.71 853.744 2317.97 854.526 2320.76 856.088C2323.55 857.627 2325.72 859.923 2327.26 862.977C2328.8 866.031 2329.57 869.807 2329.57 874.305V909H2318.95V875.584C2318.95 871.63 2317.92 868.541 2315.86 866.315C2313.8 864.066 2310.97 862.942 2307.37 862.942C2304.91 862.942 2302.72 863.474 2300.8 864.54C2298.91 865.605 2297.4 867.168 2296.29 869.227C2295.2 871.263 2294.66 873.725 2294.66 876.614ZM399.656 976.378C399.277 973.016 397.715 970.412 394.969 968.565C392.223 966.695 388.766 965.76 384.599 965.76C381.616 965.76 379.036 966.233 376.858 967.18C374.68 968.104 372.987 969.382 371.78 971.016C370.596 972.625 370.004 974.46 370.004 976.52C370.004 978.248 370.407 979.74 371.212 980.994C372.04 982.249 373.117 983.303 374.443 984.155C375.793 984.983 377.237 985.682 378.776 986.25C380.314 986.795 381.794 987.244 383.214 987.599L390.317 989.446C392.637 990.014 395.016 990.784 397.455 991.754C399.893 992.725 402.154 994.003 404.237 995.589C406.321 997.176 408.001 999.141 409.28 1001.48C410.582 1003.83 411.233 1006.63 411.233 1009.9C411.233 1014.02 410.168 1017.68 408.037 1020.87C405.93 1024.07 402.864 1026.59 398.839 1028.44C394.839 1030.28 389.997 1031.21 384.315 1031.21C378.87 1031.21 374.159 1030.34 370.182 1028.62C366.205 1026.89 363.091 1024.44 360.842 1021.26C358.593 1018.07 357.35 1014.28 357.114 1009.9H368.122C368.335 1012.53 369.188 1014.72 370.679 1016.47C372.194 1018.2 374.124 1019.49 376.467 1020.34C378.835 1021.17 381.427 1021.58 384.244 1021.58C387.346 1021.58 390.104 1021.1 392.518 1020.13C394.957 1019.13 396.875 1017.76 398.271 1016.01C399.668 1014.23 400.366 1012.16 400.366 1009.79C400.366 1007.64 399.751 1005.88 398.52 1004.5C397.313 1003.13 395.667 1001.99 393.584 1001.09C391.524 1000.19 389.192 999.401 386.588 998.714L377.994 996.371C372.17 994.785 367.554 992.453 364.145 989.375C360.759 986.297 359.067 982.225 359.067 977.159C359.067 972.969 360.203 969.311 362.476 966.186C364.749 963.061 367.826 960.634 371.709 958.906C375.591 957.154 379.971 956.278 384.848 956.278C389.772 956.278 394.116 957.143 397.881 958.871C401.669 960.599 404.652 962.978 406.83 966.009C409.008 969.015 410.144 972.472 410.239 976.378H399.656ZM435.319 1030L419.267 975.455H430.24L440.929 1015.51H441.462L452.186 975.455H463.159L473.813 1015.33H474.346L484.963 975.455H495.936L479.921 1030H469.09L458.01 990.618H457.194L446.114 1030H435.319ZM506.013 1030V975.455H516.631V1030H506.013ZM511.375 967.038C509.528 967.038 507.942 966.423 506.616 965.192C505.314 963.937 504.663 962.446 504.663 960.717C504.663 958.965 505.314 957.474 506.616 956.243C507.942 954.988 509.528 954.361 511.375 954.361C513.222 954.361 514.796 954.988 516.098 956.243C517.424 957.474 518.087 958.965 518.087 960.717C518.087 962.446 517.424 963.937 516.098 965.192C514.796 966.423 513.222 967.038 511.375 967.038ZM556.874 975.455V983.977H526.05V975.455H556.874ZM534.502 1030V969.134C534.502 965.724 535.248 962.895 536.739 960.646C538.23 958.374 540.207 956.681 542.669 955.568C545.132 954.432 547.807 953.864 550.695 953.864C552.826 953.864 554.649 954.041 556.164 954.396C557.679 954.728 558.803 955.036 559.537 955.32L557.051 963.913C556.554 963.771 555.915 963.606 555.134 963.416C554.353 963.203 553.406 963.097 552.293 963.097C549.712 963.097 547.866 963.736 546.753 965.014C545.664 966.293 545.12 968.139 545.12 970.554V1030H534.502ZM593.291 975.455V983.977H563.497V975.455H593.291ZM571.487 962.386H582.105V1013.98C582.105 1016.04 582.413 1017.59 583.028 1018.64C583.644 1019.65 584.437 1020.35 585.407 1020.73C586.402 1021.09 587.479 1021.26 588.639 1021.26C589.491 1021.26 590.237 1021.21 590.876 1021.09C591.515 1020.97 592.012 1020.87 592.368 1020.8L594.285 1029.57C593.67 1029.81 592.794 1030.05 591.657 1030.28C590.521 1030.54 589.1 1030.69 587.396 1030.71C584.602 1030.76 581.998 1030.26 579.583 1029.22C577.169 1028.18 575.216 1026.57 573.724 1024.39C572.233 1022.21 571.487 1019.48 571.487 1016.19V962.386ZM652.657 957.273H663.665V1005.11C663.665 1010.2 662.47 1014.71 660.079 1018.64C657.688 1022.54 654.326 1025.62 649.994 1027.87C645.661 1030.09 640.583 1031.21 634.759 1031.21C628.959 1031.21 623.893 1030.09 619.56 1027.87C615.228 1025.62 611.866 1022.54 609.475 1018.64C607.084 1014.71 605.888 1010.2 605.888 1005.11V957.273H616.862V1004.22C616.862 1007.51 617.584 1010.43 619.028 1012.99C620.496 1015.55 622.567 1017.56 625.242 1019.03C627.917 1020.47 631.09 1021.19 634.759 1021.19C638.452 1021.19 641.637 1020.47 644.312 1019.03C647.011 1017.56 649.07 1015.55 650.491 1012.99C651.935 1010.43 652.657 1007.51 652.657 1004.22V957.273ZM690.592 957.273V1030H679.619V957.273H690.592Z" fill="white"/>
</g>
<defs>
<clipPath id="clip0_10_62">
<rect width="3840" height="1440" fill="white"/>
</clipPath>
<clipPath id="clip1_10_62">
<rect width="1400" height="1419" fill="white" transform="translate(2595 141)"/>
</clipPath>
</defs>
</svg>
