<svg width="152" height="154" viewBox="0 0 152 154" fill="none" xmlns="http://www.w3.org/2000/svg">
<path d="M52.5818 151.092C53.7268 151.092 54.4901 150.2 54.6536 148.892C57.1617 128.428 57.7615 128.13 76.8995 124.561C78.2081 124.383 78.9714 123.669 78.9714 122.359C78.9714 121.11 78.2081 120.278 77.1175 120.099C57.8706 116.054 57.1617 116.232 54.6536 95.7684C54.4901 94.4597 53.7268 93.6269 52.5818 93.6269C51.4912 93.6269 50.6734 94.4597 50.5643 95.709C47.9472 116.47 47.511 116.827 28.0459 120.099C27.0099 120.218 26.1921 121.11 26.1921 122.359C26.1921 123.609 27.0099 124.383 28.0459 124.561C47.511 128.665 47.8927 128.547 50.5643 149.01C50.6734 150.2 51.4912 151.092 52.5818 151.092ZM19.213 84.7631C20.0309 84.7631 20.5215 84.1088 20.6851 83.2759C23.1932 69.2368 23.3023 68.1064 36.9878 65.489C37.8056 65.3105 38.3509 64.7752 38.3509 63.8233C38.3509 62.8716 37.8056 62.3361 36.9878 62.1576C23.3023 59.5402 23.1932 58.41 20.6851 44.3707C20.5215 43.5379 20.0309 42.8835 19.213 42.8835C18.3951 42.8835 17.8499 43.5379 17.7408 44.3707C15.2327 58.41 15.1236 59.5402 1.43812 62.1576C0.565734 62.3361 0.0204926 62.8716 0.0204926 63.8233C0.0204926 64.7752 0.565734 65.3105 1.43812 65.489C15.1236 68.1064 15.2327 69.2368 17.7408 83.2759C17.8499 84.1088 18.3951 84.7631 19.213 84.7631ZM57.1617 36.5777C57.8706 36.5777 58.1977 36.0424 58.3613 35.3285C60.7604 23.3714 60.7604 22.5981 72.3195 20.0995C73.0282 19.9212 73.519 19.5048 73.519 18.7314C73.519 17.958 73.0282 17.4821 72.3195 17.3632C60.7604 14.8051 60.7604 14.0913 58.3613 2.13419C58.1977 1.36085 57.8706 0.884949 57.1617 0.884949C56.453 0.884949 56.0713 1.36085 55.9077 2.13419C53.5086 14.0913 53.5632 14.8051 41.9495 17.3632C41.2407 17.4821 40.8045 17.958 40.8045 18.7314C40.8045 19.4452 41.2407 19.9212 41.9495 20.0995C53.5632 22.5981 53.5086 23.3714 55.9077 35.3285C56.0713 36.0424 56.453 36.5777 57.1617 36.5777ZM114.358 62.9905C115.175 62.9905 115.721 62.3956 115.829 61.5033C118.337 47.5236 118.502 46.3934 132.132 43.7163C133.005 43.5974 133.55 43.0025 133.55 42.1102C133.55 41.1584 133.005 40.623 132.132 40.4446C118.502 37.7676 118.337 36.6373 115.829 22.6576C115.721 21.7652 115.175 21.1704 114.358 21.1704C113.54 21.1704 113.049 21.7652 112.886 22.6576C110.377 36.6373 110.268 37.7676 96.5827 40.4446C95.7648 40.623 95.2196 41.1584 95.2196 42.1102C95.2196 43.0025 95.7648 43.5974 96.5827 43.7163C110.268 46.3934 110.377 47.5236 112.886 61.5033C113.049 62.3956 113.54 62.9905 114.358 62.9905Z" fill="#F7941E"/>
</svg>
