<svg width="488" height="494" viewBox="0 0 488 494" fill="none" xmlns="http://www.w3.org/2000/svg">
<g clip-path="url(#clip0_26_31)">
<path d="M449.795 486.188C458.521 495.899 472.825 495.708 480.854 486.188C489.226 476.48 489.401 461.821 480.854 452.305L265.896 217.018C257.347 207.5 242.866 207.5 234.84 217.018C226.29 226.536 226.464 241.574 234.84 250.902L449.795 486.188ZM456.949 470.96L316.495 317.529L326.615 306.488L467.068 460.11C470.906 464.297 471.778 468.484 468.29 472.675C464.799 476.102 460.961 475.338 456.949 470.96Z" fill="#F7941E"/>
<path d="M169.062 484.094C172.726 484.094 175.168 481.24 175.692 477.053C183.718 411.568 185.637 410.617 246.878 399.194C251.066 398.625 253.509 396.34 253.509 392.149C253.509 388.153 251.066 385.488 247.576 384.917C185.986 371.972 183.718 372.543 175.692 307.059C175.168 302.871 172.726 300.206 169.062 300.206C165.572 300.206 162.955 302.871 162.606 306.869C154.231 373.305 152.835 374.447 90.5468 384.917C87.2318 385.298 84.6148 388.153 84.6148 392.149C84.6148 396.149 87.2318 398.625 90.5468 399.194C152.835 412.328 154.057 411.95 162.606 477.431C162.955 481.24 165.572 484.094 169.062 484.094ZM62.2817 271.842C64.8988 271.842 66.4689 269.748 66.9924 267.083C75.0183 222.158 75.3675 218.54 119.161 210.165C121.778 209.594 123.523 207.881 123.523 204.835C123.523 201.789 121.778 200.075 119.161 199.504C75.3675 191.129 75.0183 187.512 66.9924 142.586C66.4689 139.921 64.8988 137.827 62.2817 137.827C59.6643 137.827 57.9198 139.921 57.5707 142.586C49.5447 187.512 49.1956 191.129 5.40201 199.504C2.61037 200.075 0.865601 201.789 0.865601 204.835C0.865601 207.881 2.61037 209.594 5.40201 210.165C49.1956 218.54 49.5447 222.158 57.5707 267.083C57.9198 269.748 59.6643 271.842 62.2817 271.842ZM183.718 117.649C185.986 117.649 187.033 115.936 187.556 113.651C195.233 75.3886 195.233 72.9137 232.222 64.9185C234.49 64.3477 236.061 63.0152 236.061 60.5403C236.061 58.0655 234.49 56.5427 232.222 56.1622C195.233 47.9763 195.233 45.6921 187.556 7.42934C187.033 4.95466 185.986 3.43176 183.718 3.43176C181.45 3.43176 180.228 4.95466 179.705 7.42934C172.027 45.6921 172.202 47.9763 135.039 56.1622C132.77 56.5427 131.375 58.0655 131.375 60.5403C131.375 62.8245 132.77 64.3477 135.039 64.9185C172.202 72.9137 172.027 75.3886 179.705 113.651C180.228 115.936 181.45 117.649 183.718 117.649ZM366.744 202.169C369.36 202.169 371.107 200.266 371.454 197.41C379.48 152.675 380.005 149.059 423.624 140.492C426.415 140.112 428.158 138.208 428.158 135.353C428.158 132.307 426.415 130.594 423.624 130.023C380.005 121.456 379.48 117.839 371.454 73.1044C371.107 70.2486 369.36 68.3453 366.744 68.3453C364.129 68.3453 362.556 70.2486 362.035 73.1044C354.007 117.839 353.658 121.456 309.865 130.023C307.247 130.594 305.503 132.307 305.503 135.353C305.503 138.208 307.247 140.112 309.865 140.492C353.658 149.059 354.007 152.675 362.035 197.41C362.556 200.266 364.129 202.169 366.744 202.169Z" fill="#F7941E"/>
</g>
<defs>
<clipPath id="clip0_26_31">
<rect width="486.4" height="492.8" fill="white" transform="translate(0.800049 0.599976)"/>
</clipPath>
</defs>
</svg>
